<?xml version="1.0" encoding="UTF-8"?>
<svg id="uuid-527d7f58-fff1-4a64-ac80-0b5831aad54b" xmlns="http://www.w3.org/2000/svg" viewBox="0 0 642.07 642.09">
  <defs>
    <style>
      .cls-1 {
        fill: #1b1a37;
      }

      .cls-2 {
        fill: #fbf7f0;
      }
    </style>
  </defs>
  <path class="cls-2" d="M628.27,157.96c-15.09-72.23-71.91-129.06-144.14-144.15-28.26-6.5-70.62-11.21-119.79-12.99-13.96-.51-28.39-.82-43.3-.82-67.42,0-126.81,5.46-163.09,13.8C85.72,28.9,28.89,85.73,13.8,157.96,5.46,194.24,0,253.63,0,321.05c0,11.46.21,22.57.51,33.49,1.48,53.33,6.36,99.49,13.29,129.6,15.09,72.23,71.91,129.06,144.14,144.15,36.28,8.35,95.67,13.8,163.09,13.8s126.81-5.46,163.09-13.8c72.23-15.09,129.06-71.91,144.14-144.15,8.35-36.28,13.81-95.67,13.81-163.09s-5.46-126.81-13.81-163.09h.01Z"/>
  <path class="cls-1" d="M313.51,321.05h0v150.55h0c-83.15,0-150.55-67.4-150.55-150.55h0v-150.55h0c83.15,0,150.55,67.4,150.55,150.55ZM479.12,170.49c-83.15,0-150.55,67.4-150.55,150.55h0v150.55h0c83.15,0,150.55-67.4,150.55-150.55h0v-150.55h0Z"/>
</svg>