<?xml version="1.0" encoding="UTF-8"?>
<svg id="Character_1" data-name="Character 1" xmlns="http://www.w3.org/2000/svg" viewBox="0 0 600 300">
  <defs>
    <style>
      .cls-1 {
        fill: #ffa8a7;
      }

      .cls-2 {
        opacity: .85;
      }

      .cls-3, .cls-4, .cls-5 {
        opacity: .9;
      }

      .cls-6, .cls-7, .cls-8, .cls-9, .cls-10, .cls-11 {
        fill: #fff;
      }

      .cls-6, .cls-12, .cls-13 {
        opacity: .2;
      }

      .cls-14 {
        fill: #c8856a;
      }

      .cls-15 {
        fill: #fafafa;
      }

      .cls-16 {
        fill: #e04757;
      }

      .cls-17, .cls-18, .cls-19, .cls-5 {
        fill: #1b1a37;
      }

      .cls-20 {
        fill: #b16668;
      }

      .cls-21, .cls-4 {
        fill: #263238;
      }

      .cls-22 {
        fill: #f0f0f0;
      }

      .cls-23 {
        fill: #ffbda7;
      }

      .cls-24 {
        opacity: .3;
      }

      .cls-25, .cls-12, .cls-26, .cls-27, .cls-28 {
        fill: #1d3e87;
      }

      .cls-25, .cls-11 {
        opacity: .6;
      }

      .cls-7, .cls-29 {
        opacity: .45;
      }

      .cls-30, .cls-31 {
        fill: #37474f;
      }

      .cls-32 {
        fill: #af6152;
      }

      .cls-33 {
        fill: #eae7db;
      }

      .cls-34 {
        fill: #fbf7f0;
      }

      .cls-18 {
        opacity: .75;
      }

      .cls-9 {
        fill-rule: evenodd;
      }

      .cls-35 {
        fill: #e0e0e0;
      }

      .cls-36 {
        fill: #455a64;
      }

      .cls-26 {
        opacity: .8;
      }

      .cls-37 {
        fill: #ffd244;
      }

      .cls-19, .cls-31, .cls-38 {
        opacity: .5;
      }

      .cls-39 {
        fill: #282828;
      }

      .cls-40 {
        fill: #9fb89c;
      }

      .cls-10 {
        opacity: .15;
      }

      .cls-41 {
        fill: #ebebeb;
      }

      .cls-42 {
        opacity: .35;
      }

      .cls-43 {
        fill: #f28f8f;
      }

      .cls-44 {
        fill: #50634c;
      }

      .cls-45 {
        fill: #f0997a;
      }

      .cls-46 {
        fill: #9a4a4d;
      }

      .cls-28 {
        opacity: .6;
      }

      .cls-47 {
        fill: #ddb162;
      }

      .cls-48 {
        fill: #71906b;
      }
    </style>
  </defs>
  <path class="cls-33" d="M339.03,299.3V38.06h258.8c1.54,0,2.34,3.5,2.32,5.18-.06,9.24-1.99,23.36-3.32,32.86-17.89,127.41-129.18,223.41-257.8,223.21Z"/>
  <path class="cls-33" d="M339.03,38.06v261.24H80.23c-1.54,0-2.34-3.5-2.32-5.18.06-9.24,1.99-23.36,3.32-32.86C99.12,133.86,210.4,37.86,339.03,38.06Z"/>
  <path class="cls-34" d="M325.93,288.65V27.41h258.8c1.54,0,2.34,3.5,2.32,5.18-.06,9.24-1.99,23.36-3.32,32.86-17.89,127.41-129.18,223.41-257.8,223.21Z"/>
  <path class="cls-34" d="M325.93,27.41v261.24H67.13c-1.54,0-2.34-3.5-2.32-5.18.06-9.24,1.99-23.36,3.32-32.86C86.02,123.21,197.31,27.21,325.93,27.41Z"/>
  <path id="Shadow" class="cls-33" d="M410.45,261.37c.12.59.36,1.17.75,1.74.6.91,1.54,1.76,2.8,2.49,4.85,2.8,12.72,2.8,17.57,0,1.26-.73,2.2-1.58,2.8-2.49.38-.56.63-1.15.74-1.74h0c.43-2.1-.75-4.3-3.55-5.91-4.85-2.8-12.72-2.8-17.57,0-2.8,1.61-3.98,3.81-3.55,5.91Z"/>
  <path id="Shadow-2" data-name="Shadow" class="cls-33" d="M438.23,217.01l-98.2,56.72c-2.27,1.31-5.95,1.31-8.22,0l-143.98-83.13c-2.27-1.31-2.27-3.43,0-4.74l98.2-56.72c2.27-1.31,5.95-1.31,8.22,0l143.98,83.13c2.27,1.31,2.27,3.43,0,4.74Z"/>
  <path id="Shadow-3" data-name="Shadow" class="cls-33" d="M219.12,270.15c-11.27,1.51-37.98,2.49-39-12.68-.63-9,8.26-15.74,15.33-15.89,2.79-.06,6.69.37,7.75,3.92,1.76,5.85,6.13,7.25,10.81,7.57,5.19.16,10.33.07,15.51.45,2.81.14,5.34.26,7.54,2.38,7.13,8.8-11.47,13.38-17.93,14.25Z"/>
  <g id="Laptop">
    <g>
      <path class="cls-30" d="M428.65,214.79c0,2.25-1.68,3.69-3.76,4.89l-85.11,49.14c-2.08,1.2-5.44,1.2-7.52,0l-137.31-79.28c-2.08-1.2-3.76-2.74-3.76-4.99,0-2.25,1.68-3.64,3.76-4.84l85.11-49.14c2.08-1.2,5.44-1.2,7.52,0l137.31,79.28c2.08,1.2,3.76,2.69,3.76,4.94Z"/>
      <path class="cls-36" d="M424.89,214.19l-85.12,49.14c-2.08,1.2-5.44,1.2-7.52,0l-137.31-79.28c-2.08-1.2-2.08-3.14,0-4.34l85.11-49.14c2.08-1.2,5.44-1.2,7.52,0l137.31,79.28c2.08,1.2,2.08,3.14,0,4.34Z"/>
      <path class="cls-21" d="M336.01,264.23v5.48c1.36,0,2.73-.3,3.76-.89l85.12-49.14c2.08-1.2,3.76-2.64,3.76-4.89s-1.51-3.58-3.47-4.77c1.61,1.14,1.64,3.05-.29,4.18l-85.12,49.14c-1.03.6-2.4.9-3.76.9Z"/>
    </g>
    <g>
      <g>
        <path class="cls-30" d="M430.29,210.43c1.65-.76,2.1-2.07,2.25-4.38l7.38-107.95c.16-2.31-1.4-5.15-3.48-6.35L299.13,12.48c-2.08-1.2-3.6-1.85-5.52-.54-2.01,1.37-1.96,2.04-2.12,4.34l-7.38,107.95c-.16,2.31,1.4,5.15,3.48,6.35l137.31,79.28c2.08,1.2,3.25,1.55,5.38.57Z"/>
        <g>
          <path class="cls-21" d="M365.38,57.15c.9.43,1.58,1.56,1.51,2.5-.06.95-.85,1.36-1.74.92-.9-.44-1.58-1.56-1.51-2.5.06-.94.85-1.36,1.74-.92Z"/>
          <path class="cls-36" d="M364.73,57.64c.29.14.51.5.49.81-.02.31-.27.44-.56.3-.29-.14-.51-.5-.49-.81.02-.3.27-.44.56-.3Z"/>
        </g>
        <path class="cls-36" d="M291.5,16.28c.16-2.3,1.97-3.2,4.05-2.01l137.31,79.28c1.04.6,1.95,1.61,2.57,2.76l3.58-1.8h0c-.63-1.15-1.54-2.16-2.58-2.76L299.14,12.48c-2.08-1.2-3.61-1.86-5.52-.54-2.02,1.4-1.96,2.04-2.12,4.34Z"/>
        <path class="cls-21" d="M425.19,210.01c1.89,1.12,3.09,1.25,5.1.41,1.54-.65,2.09-2.07,2.25-4.37l7.38-107.95c.08-1.15-.27-2.44-.9-3.58l-3.58,1.79h0c.63,1.16.98,2.44.9,3.59l-7.38,107.95c-.15,2.14-1.99,3.21-3.77,2.16Z"/>
      </g>
      <path d="M430.25,100.81L298.11,24.54c-1.25-.72-2.33-.18-2.43,1.2l-6.66,97.58c-.09,1.38.84,3.09,2.09,3.81l132.14,76.27c1.25.72,2.33.18,2.43-1.2l6.66-97.57c.09-1.38-.84-3.09-2.09-3.81Z"/>
      <path class="cls-27" d="M430.25,100.81c1.25.72,2.18,2.42,2.09,3.81l-6.55,95.9-130.63-75.4c-1.25-.72-2.18-2.42-2.09-3.81l6.55-95.9,130.63,75.4Z"/>
      <path class="cls-7" d="M430.25,100.81c1.25.72,2.18,2.42,2.09,3.81l-6.55,95.9-130.63-75.4c-1.25-.72-2.18-2.42-2.09-3.81l6.55-95.9,130.63,75.4Z"/>
    </g>
    <g>
      <path class="cls-21" d="M413.28,210.48l-126.18-72.85c-.98-.57-2.57-.57-3.55,0l-4.6,2.58c-.98.57-.98,1.48,0,2.05l126.2,72.84c.98.57,2.57.57,3.55,0l4.58-2.57c.98-.57.98-1.48,0-2.05Z"/>
      <path class="cls-21" d="M400.89,217.79l-126.18-72.85c-.98-.57-2.43-.64-3.24-.18l-32.84,18.96c-.81.47-.67,1.31.31,1.87l126.03,72.75c.98.57,2.43.65,3.24.18l32.98-18.87c.81-.46.68-1.3-.3-1.87Z"/>
      <g>
        <polygon class="cls-21" points="317.69 218.92 316.83 219.42 294.01 232.59 253.43 209.16 252.59 208.68 276.26 195.01 317.69 218.92"/>
        <polygon class="cls-30" points="253.95 209.46 276.26 196.59 316.31 219.72 294.01 232.59 253.95 209.46"/>
      </g>
      <path class="cls-36" d="M352.02,209.89l3.7-2.13c.15-.08.13-.23-.03-.32l-3.86-2.23c-.16-.09-.42-.1-.56-.02l-3.7,2.13c-.15.08-.13.23.03.32l3.86,2.23c.16.09.42.1.56.02ZM356.54,202.13l-3.7,2.13c-.15.08-.13.23.03.32l3.86,2.23c.16.09.42.1.56.02l3.7-2.13c.15-.08.13-.23-.03-.32l-3.86-2.23c-.16-.09-.42-.1-.56-.02ZM269.19,151.76l-3.7,2.13c-.15.08-.13.23.03.32l6.54,3.78c.16.09.42.1.56.02l3.7-2.13c.15-.08.13-.23-.03-.32l-6.54-3.78c-.16-.1-.42-.1-.56-.02ZM362.19,205.39l-3.7,2.13c-.15.08-.13.23.03.32l3.86,2.23c.16.09.42.1.56.02l3.7-2.13c.15-.08.13-.23-.03-.32l-3.86-2.23c-.16-.09-.42-.1-.56-.02ZM277.51,156.57l-3.7,2.13c-.15.08-.13.23.03.32l3.86,2.23c.16.09.42.1.56.02l3.7-2.13c.15-.08.13-.23-.03-.32l-3.86-2.23c-.16-.09-.42-.1-.56-.02ZM283.16,159.83l-3.7,2.13c-.15.08-.13.23.03.32l3.86,2.23c.16.09.42.1.56.02l3.7-2.13c.15-.08.13-.23-.03-.32l-3.86-2.23c-.16-.1-.42-.1-.56-.02ZM269.79,168.58l3.7-2.13c.15-.08.13-.23-.03-.32l-3.86-2.23c-.16-.09-.42-.1-.56-.02l-3.7,2.13c-.15.08-.13.23.03.32l3.86,2.23c.16.09.42.1.56.02ZM275.44,171.84l3.7-2.13c.15-.08.13-.23-.03-.32l-3.86-2.23c-.16-.09-.42-.1-.56-.02l-3.7,2.13c-.15.08-.13.23.03.32l3.86,2.23c.16.1.42.1.56.02ZM281.09,175.1l3.7-2.13c.15-.08.13-.23-.03-.32l-3.86-2.23c-.16-.09-.42-.1-.56-.02l-3.7,2.13c-.15.08-.13.23.03.32l3.86,2.23c.16.09.42.1.56.02ZM286.73,178.36l3.7-2.13c.15-.08.13-.23-.03-.32l-3.86-2.23c-.16-.1-.42-.1-.56-.02l-3.7,2.13c-.15.08-.13.23.03.32l3.86,2.23c.16.1.42.1.56.02ZM357.67,213.15l3.7-2.13c.15-.08.13-.23-.03-.32l-3.86-2.23c-.16-.09-.42-.1-.56-.02l-3.7,2.13c-.15.08-.13.23.03.32l3.86,2.23c.16.09.42.1.56.02ZM264.14,165.32l3.7-2.13c.15-.08.13-.23-.03-.32l-3.57-2.06c-.16-.09-.18-.24-.03-.32l4.75-2.74c.15-.08.13-.23-.03-.32l-4.46-2.57c-.16-.09-.42-.1-.56-.02l-8.98,5.18c-.15.08-.13.23.03.32l8.62,4.98c.16.09.42.1.56.02ZM288.81,163.09l-3.7,2.13c-.15.08-.13.23.03.32l3.86,2.23c.16.09.42.1.56.02l3.7-2.13c.15-.08.13-.23-.03-.32l-3.87-2.23c-.16-.09-.42-.1-.56-.02ZM294.46,166.35l-3.7,2.13c-.15.08-.13.23.03.32l3.86,2.23c.16.09.42.1.56.02l3.7-2.13c.15-.08.13-.23-.03-.32l-3.86-2.23c-.16-.09-.42-.1-.56-.02ZM329.97,199.06c.15-.08.13-.23-.03-.32l-3.86-2.23c-.16-.09-.42-.1-.56-.02l-3.7,2.13c-.15.08-.13.23.03.32l3.86,2.23c.16.09.42.1.56.02l3.7-2.13ZM339.64,192.44l-3.7,2.13c-.15.08-.13.23.03.32l3.86,2.23c.16.09.42.1.56.02l3.7-2.13c.15-.08.13-.23-.03-.32l-3.86-2.23c-.16-.09-.42-.1-.56-.02ZM336.74,196.87c.15-.08.13-.23-.03-.32l-3.86-2.23c-.16-.09-.42-.1-.56-.02l-3.7,2.13c-.15.08-.13.23.03.32l3.87,2.23c.16.09.42.1.56.02l3.7-2.13ZM318.02,202.52l3.7-2.13c.15-.08.13-.23-.03-.32l-3.86-2.23c-.16-.1-.42-.1-.56-.02l-3.7,2.13c-.15.08-.13.23.03.32l3.86,2.23c.16.1.42.1.56.02ZM327.37,203.65c.15-.08.13-.23-.03-.32l-3.86-2.23c-.16-.09-.42-.1-.56-.02l-3.7,2.13c-.15.08-.13.23.03.32l3.86,2.23c.16.09.42.1.56.02l3.7-2.13ZM334,189.18l-3.7,2.13c-.15.08-.13.23.03.32l3.86,2.23c.16.09.42.1.56.02l3.7-2.13c.15-.08.13-.23-.03-.32l-3.86-2.23c-.16-.09-.42-.1-.56-.02ZM305.75,172.88l-3.7,2.13c-.15.08-.13.23.03.32l3.87,2.23c.16.09.42.1.56.02l3.7-2.13c.15-.08.13-.23-.03-.32l-3.86-2.23c-.16-.09-.42-.1-.56-.02ZM328.35,185.92l-3.7,2.13c-.15.08-.13.23.03.32l3.86,2.23c.16.1.42.1.56.02l3.7-2.13c.15-.08.13-.23-.03-.32l-3.86-2.23c-.16-.1-.42-.1-.56-.02ZM300.1,169.61l-3.7,2.13c-.15.08-.13.23.03.32l3.86,2.23c.16.1.42.1.56.02l3.7-2.13c.15-.08.13-.23-.03-.32l-3.86-2.23c-.16-.09-.42-.1-.56-.02ZM311.4,176.14l-3.7,2.13c-.15.08-.13.23.03.32l3.86,2.23c.16.1.42.1.56.02l3.7-2.13c.15-.08.13-.23-.03-.32l-3.86-2.23c-.16-.1-.42-.1-.56-.02ZM317.05,179.4l-3.7,2.13c-.15.08-.13.23.03.32l3.87,2.23c.16.09.42.1.56.02l3.7-2.13c.15-.08.13-.23-.03-.32l-3.86-2.23c-.16-.09-.42-.1-.56-.02ZM322.7,182.66l-3.7,2.13c-.15.08-.13.23.03.32l3.87,2.23c.16.09.42.1.56.02l3.7-2.13c.15-.08.13-.23-.03-.32l-3.86-2.23c-.16-.09-.42-.1-.56-.02ZM298.03,184.89l3.7-2.13c.15-.08.13-.23-.03-.32l-3.86-2.23c-.16-.09-.42-.1-.56-.02l-3.7,2.13c-.15.08-.13.23.03.32l3.86,2.23c.16.09.42.1.56.02ZM384.8,218.29l-3.7,2.13c-.15.08-.13.23.03.32l3.86,2.23c.16.09.42.1.56.02l3.7-2.13c.15-.08.13-.23-.03-.32l-3.86-2.23c-.16-.09-.42-.1-.56-.02ZM350.89,198.87l-3.7,2.13c-.15.08-.13.23.03.32l3.86,2.23c.16.09.42.1.56.02l3.7-2.13c.15-.08.13-.23-.03-.32l-3.86-2.23c-.16-.09-.42-.1-.56-.02ZM379.15,215.03l-3.7,2.13c-.15.08-.13.23.03.32l3.86,2.23c.16.1.42.1.56.02l3.7-2.13c.15-.08.13-.23-.03-.32l-3.86-2.23c-.16-.1-.42-.1-.56-.02ZM270.91,163.13l3.7-2.13c.15-.08.13-.23-.03-.32l-3.86-2.23c-.16-.09-.42-.1-.56-.02l-3.7,2.13c-.15.08-.13.23.03.32l3.86,2.23c.16.09.42.1.56.02ZM369.8,213.9c-.15.08-.13.23.03.32l3.86,2.23c.16.09.42.1.56.02l3.7-2.13c.15-.08.13-.23-.03-.32l-3.86-2.23c-.16-.09-.42-.1-.56-.02l-3.7,2.13ZM292.38,181.62l3.7-2.13c.15-.08.13-.23-.03-.32l-3.86-2.23c-.16-.09-.42-.1-.56-.02l-3.7,2.13c-.15.08-.13.23.03.32l3.86,2.23c.16.09.42.1.56.02ZM363.7,222.57l3.7-2.13c.15-.08.13-.23-.03-.32l-3.86-2.23c-.16-.09-.42-.1-.56-.02l-3.7,2.13c-.15.08-.13.23.03.32l3.86,2.23c.16.1.42.1.56.02ZM374.63,222.78l3.7-2.13c.15-.08.13-.23-.03-.32l-3.86-2.23c-.16-.09-.42-.1-.56-.02l-3.7,2.13c-.15.08-.13.23.03.32l3.86,2.23c.16.09.42.1.56.02ZM364.52,216.95c-.15.08-.13.23.03.32l3.86,2.23c.16.09.42.1.56.02l3.7-2.13c.15-.08.13-.23-.03-.32l-3.87-2.23c-.16-.09-.42-.1-.56-.02l-3.7,2.13ZM383.79,223.59l-3.86-2.23c-.16-.09-.42-.1-.56-.02l-8.98,5.18c-.15.08-.13.23.03.32l3.86,2.23c.16.09.42.1.56.02l8.98-5.18c.15-.08.13-.23-.03-.32ZM362.56,211.64l-3.7,2.13c-.15.08-.13.23.03.32l3.86,2.23c.16.1.42.1.56.02l3.7-2.13c.15-.08.13-.23-.03-.32l-3.86-2.23c-.16-.1-.42-.1-.56-.02ZM281.44,164.94l-3.7,2.13c-.15.08-.13.23.03.32l3.87,2.23c.16.09.42.1.56.02l3.7-2.13c.15-.08.13-.23-.03-.32l-3.86-2.23c-.16-.09-.42-.1-.56-.02ZM373.04,223.7c.15-.08.13-.23-.03-.32l-3.86-2.23c-.16-.09-.42-.1-.56-.02l-3.7,2.13c-.15.08-.13.23.03.32l3.86,2.23c.16.09.42.1.56.02l3.7-2.13ZM275.8,161.68l-3.7,2.13c-.15.08-.13.23.03.32l3.86,2.23c.16.09.42.1.56.02l3.7-2.13c.15-.08.13-.23-.03-.32l-3.86-2.23c-.16-.09-.42-.1-.56-.02ZM324.32,195.8c.15-.08.13-.23-.03-.32l-3.86-2.23c-.16-.09-.42-.1-.56-.02l-3.7,2.13c-.15.08-.13.23.03.32l3.87,2.23c.16.09.42.1.56.02l3.7-2.13ZM326.63,191.03l-3.7,2.13c-.15.08-.13.23.03.32l3.86,2.23c.16.09.42.1.56.02l3.7-2.13c.15-.08.13-.23-.03-.32l-3.86-2.23c-.16-.09-.42-.1-.56-.02ZM314.98,194.67l3.7-2.13c.15-.08.13-.23-.03-.32l-3.86-2.23c-.16-.09-.42-.1-.56-.02l-3.7,2.13c-.15.08-.13.23.03.32l3.86,2.23c.16.1.42.1.56.02ZM309.33,191.41l3.7-2.13c.15-.08.13-.23-.03-.32l-3.86-2.23c-.16-.09-.42-.1-.56-.02l-3.7,2.13c-.15.08-.13.23.03.32l3.86,2.23c.16.09.42.1.56.02ZM303.68,188.15l3.7-2.13c.15-.08.13-.23-.03-.32l-3.86-2.23c-.16-.1-.42-.1-.56-.02l-3.7,2.13c-.15.08-.13.23.03.32l3.86,2.23c.16.1.42.1.56.02ZM320.98,187.77l-3.7,2.13c-.15.08-.13.23.03.32l3.86,2.23c.16.1.42.1.56.02l3.7-2.13c.15-.08.13-.23-.03-.32l-3.86-2.23c-.16-.1-.42-.1-.56-.02ZM315.34,184.51l-3.7,2.13c-.15.08-.13.23.03.32l3.86,2.23c.16.09.42.1.56.02l3.7-2.13c.15-.08.13-.23-.03-.32l-3.86-2.23c-.16-.09-.42-.1-.56-.02ZM292.74,171.46l-3.7,2.13c-.15.08-.13.23.03.32l3.86,2.23c.16.1.42.1.56.02l3.7-2.13c.15-.08.13-.23-.03-.32l-3.86-2.23c-.16-.1-.42-.1-.56-.02ZM298.39,174.72l-3.7,2.13c-.15.08-.13.23.03.32l3.86,2.23c.16.09.42.1.56.02l3.7-2.13c.15-.08.13-.23-.03-.32l-3.86-2.23c-.16-.09-.42-.1-.56-.02ZM287.09,168.2l-3.7,2.13c-.15.08-.13.23.03.32l3.86,2.23c.16.09.42.1.56.02l3.7-2.13c.15-.08.13-.23-.03-.32l-3.86-2.23c-.16-.09-.42-.1-.56-.02ZM309.69,181.25l-3.7,2.13c-.15.08-.13.23.03.32l3.86,2.23c.16.1.42.1.56.02l3.7-2.13c.15-.08.13-.23-.03-.32l-3.86-2.23c-.16-.09-.42-.1-.56-.02ZM304.04,177.98l-3.7,2.13c-.15.08-.13.23.03.32l3.86,2.23c.16.09.42.1.56.02l3.7-2.13c.15-.08.13-.23-.03-.32l-3.86-2.23c-.16-.09-.42-.1-.56-.02ZM312.37,199.26l3.7-2.13c.15-.08.13-.23-.03-.32l-3.86-2.23c-.16-.09-.42-.1-.56-.02l-3.7,2.13c-.15.08-.13.23.03.32l3.86,2.23c.16.09.42.1.56.02ZM341.63,198.16l3.86,2.23c.16.09.42.1.56.02l3.7-2.13c.15-.08.13-.23-.03-.32l-3.86-2.23c-.16-.09-.42-.1-.56-.02l-3.7,2.13c-.15.08-.13.23.03.32ZM334.27,200.01l5.95,3.43c.16.1.42.1.56.02l3.7-2.13c.15-.08.13-.23-.03-.32l-5.95-3.43c-.16-.1-.42-.1-.56-.02l-3.7,2.13c-.15.08-.13.23.03.32ZM347.15,193.95l4.76,2.75c.16.09.42.1.56.02l3.7-2.13c.15-.08.13-.23-.03-.32l-4.76-2.75c-.16-.1-.42-.1-.56-.02l-3.7,2.13c-.15.08-.13.23.03.32ZM347.16,189.38c.15-.08.13-.23-.03-.32l-3.86-2.23c-.16-.09-.42-.1-.56-.02l-3.7,2.13c-.15.08-.13.23.03.32l3.86,2.23c.16.09.42.1.56.02l3.7-2.13ZM327.5,202.2l7.43,4.29c.16.09.42.1.56.02l3.7-2.13c.15-.08.13-.23-.03-.32l-7.43-4.29c-.16-.09-.42-.1-.56-.02l-3.7,2.13c-.15.08-.13.23.03.32ZM324.89,206.8l4.76,2.75c.16.09.42.1.56.02l3.7-2.13c.15-.08.13-.23-.03-.32l-4.76-2.75c-.16-.1-.42-.1-.56-.02l-3.7,2.13c-.15.08-.13.23.03.32ZM305.17,165.13c.15-.08.13-.23-.03-.32l-3.86-2.23c-.16-.09-.42-.1-.56-.02l-3.7,2.13c-.15.08-.13.23.03.32l3.86,2.23c.16.09.42.1.56.02l3.7-2.13ZM316.46,171.66c.15-.08.13-.23-.03-.32l-3.86-2.23c-.16-.09-.42-.1-.56-.02l-3.7,2.13c-.15.08-.13.23.03.32l3.86,2.23c.16.09.42.1.56.02l3.7-2.13ZM341.52,186.12c.15-.08.13-.23-.03-.32l-3.86-2.23c-.16-.1-.42-.1-.56-.02l-3.7,2.13c-.15.08-.13.23.03.32l3.86,2.23c.16.09.42.1.56.02l3.7-2.13ZM310.82,168.4c.15-.08.13-.23-.03-.32l-3.86-2.23c-.16-.09-.42-.1-.56-.02l-3.7,2.13c-.15.08-.13.23.03.32l3.86,2.23c.16.1.42.1.56.02l3.7-2.13ZM322.11,174.92c.15-.08.13-.23-.03-.32l-3.86-2.23c-.16-.09-.42-.1-.56-.02l-3.7,2.13c-.15.08-.13.23.03.32l3.86,2.23c.16.1.42.1.56.02l3.7-2.13ZM318.39,208.84c-.15.08-.13.23.03.32l5.95,3.43c.16.1.42.1.56.02l3.7-2.13c.15-.08.13-.23-.03-.32l-5.95-3.43c-.16-.09-.42-.1-.56-.02l-3.7,2.13ZM330.22,179.6c.15-.08.13-.23-.03-.32l-3.86-2.23c-.16-.09-.42-.1-.56-.02l-3.7,2.13c-.15.08-.13.23.03.32l3.86,2.23c.16.09.42.1.56.02l3.7-2.13ZM335.87,182.86c.15-.08.13-.23-.03-.32l-3.86-2.23c-.16-.09-.42-.1-.56-.02l-3.7,2.13c-.15.08-.13.23.03.32l3.86,2.23c.16.09.42.1.56.02l3.7-2.13ZM342.95,222.83c-.15.08-.13.23.03.32l9.51,5.49c.16.09.42.1.56.02l3.7-2.13c.15-.08.13-.23-.03-.32l-9.51-5.49c-.16-.09-.42-.1-.56-.02l-3.7,2.13ZM326.07,213.2c-.15.08-.13.23.03.32l3.86,2.23c.16.1.42.1.56.02l3.7-2.13c.15-.08.13-.23-.03-.32l-3.86-2.23c-.16-.1-.42-.1-.56-.02l-3.7,2.13ZM306.72,196l3.7-2.13c.15-.08.13-.23-.03-.32l-3.86-2.23c-.16-.09-.42-.1-.56-.02l-3.7,2.13c-.15.08-.13.23.03.32l3.86,2.23c.16.09.42.1.56.02ZM337.36,219.72c-.15.08-.13.23.03.32l3.86,2.23c.16.09.42.1.56.02l3.7-2.13c.15-.08.13-.23-.03-.32l-3.86-2.23c-.16-.09-.42-.1-.56-.02l-3.7,2.13ZM354.31,229.29c-.15.08-.13.23.03.32l3.86,2.23c.16.09.42.1.56.02l3.7-2.13c.15-.08.13-.23-.03-.32l-3.86-2.23c-.16-.09-.42-.1-.56-.02l-3.7,2.13ZM359.85,232.94l3.86,2.23c.16.09.42.1.56.02l8.98-5.18c.15-.08.13-.23-.03-.32l-3.86-2.23c-.16-.09-.42-.1-.56-.02l-8.98,5.18c-.15.08-.13.23.03.32ZM258.63,174.34c-.15.08-.13.23.03.32l4.76,2.75c.16.1.42.1.56.02l3.7-2.13c.15-.08.13-.23-.03-.32l-4.76-2.75c-.16-.09-.42-.1-.56-.02l-3.7,2.13ZM244.36,166.1c-.15.08-.13.23.03.32l5.95,3.43c.16.09.42.1.56.02l3.7-2.13c.15-.08.13-.23-.03-.32l-5.95-3.43c-.16-.09-.42-.1-.56-.02l-3.7,2.13ZM271.71,181.89c-.15.08-.13.23.03.32l31.81,18.37c.16.1.42.1.56.02l3.7-2.13c.15-.08.13-.23-.03-.32l-31.81-18.37c-.16-.09-.42-.1-.56-.02l-3.7,2.13ZM305.31,201.28c-.15.08-.13.23.03.32l4.76,2.75c.16.09.42.1.56.02l3.7-2.13c.15-.08.13-.23-.03-.32l-4.76-2.75c-.16-.09-.42-.1-.56-.02l-3.7,2.13ZM265.17,178.11c-.15.08-.13.23.03.32l4.76,2.75c.16.09.42.1.56.02l3.7-2.13c.15-.08.13-.23-.03-.32l-4.76-2.75c-.16-.09-.42-.1-.56-.02l-3.7,2.13ZM311.85,205.06c-.15.08-.13.23.03.32l4.76,2.75c.16.09.42.1.56.02l3.7-2.13c.15-.08.13-.23-.03-.32l-4.76-2.75c-.16-.09-.42-.1-.56-.02l-3.7,2.13ZM252.09,170.56c-.15.08-.13.23.03.32l4.76,2.75c.16.09.42.1.56.02l3.7-2.13c.15-.08.13-.23-.03-.32l-4.76-2.75c-.16-.1-.42-.1-.56-.02l-3.7,2.13ZM331.72,216.46c-.15.08-.13.23.03.32l3.86,2.23c.16.09.42.1.56.02l3.7-2.13c.15-.08.13-.23-.03-.32l-3.86-2.23c-.16-.09-.42-.1-.56-.02l-3.7,2.13ZM364.06,228.88l3.7-2.13c.15-.08.13-.23-.03-.32l-3.86-2.23c-.16-.09-.42-.1-.56-.02l-3.7,2.13c-.15.08-.13.23.03.32l3.86,2.23c.16.09.42.1.56.02ZM346.37,206.63l3.7-2.13c.15-.08.13-.23-.03-.32l-3.86-2.23c-.16-.1-.42-.1-.56-.02l-3.7,2.13c-.15.08-.13.23.03.32l3.86,2.23c.16.1.42.1.56.02ZM261.53,169.91l3.7-2.13c.15-.08.13-.23-.03-.32l-11.3-6.52c-.16-.1-.42-.1-.56-.02l-3.7,2.13c-.15.08-.13.23.03.32l11.3,6.52c.16.09.42.1.56.02ZM356.45,220.31c.15-.08.13-.23-.03-.32l-3.87-2.23c-.16-.09-.42-.1-.56-.02l-3.7,2.13c-.15.08-.13.23.03.32l3.86,2.23c.16.09.42.1.56.02l3.7-2.13ZM358.04,219.4l3.7-2.13c.15-.08.13-.23-.03-.32l-3.86-2.23c-.16-.09-.42-.1-.56-.02l-3.7,2.13c-.15.08-.13.23.03.32l3.87,2.23c.16.09.42.1.56.02ZM267.18,173.17l3.7-2.13c.15-.08.13-.23-.03-.32l-3.86-2.23c-.16-.09-.42-.1-.56-.02l-3.7,2.13c-.15.08-.13.23.03.32l3.86,2.23c.16.09.42.1.56.02ZM345.16,213.85c.15-.08.13-.23-.03-.32l-3.86-2.23c-.16-.09-.42-.1-.56-.02l-3.7,2.13c-.15.08-.13.23.03.32l3.86,2.23c.16.09.42.1.56.02l3.7-2.13ZM295.43,189.48l3.7-2.13c.15-.08.13-.23-.03-.32l-3.86-2.23c-.16-.09-.42-.1-.56-.02l-3.7,2.13c-.15.08-.13.23.03.32l3.86,2.23c.16.09.42.1.56.02ZM289.78,186.22l3.7-2.13c.15-.08.13-.23-.03-.32l-3.86-2.23c-.16-.1-.42-.1-.56-.02l-3.7,2.13c-.15.08-.13.23.03.32l3.86,2.23c.16.1.42.1.56.02ZM301.07,192.74l3.7-2.13c.15-.08.13-.23-.03-.32l-3.86-2.23c-.16-.09-.42-.1-.56-.02l-3.7,2.13c-.15.08-.13.23.03.32l3.86,2.23c.16.1.42.1.56.02ZM278.48,179.7l3.7-2.13c.15-.08.13-.23-.03-.32l-3.86-2.23c-.16-.09-.42-.1-.56-.02l-3.7,2.13c-.15.08-.13.23.03.32l3.86,2.23c.16.09.42.1.56.02ZM284.13,182.96l3.7-2.13c.15-.08.13-.23-.03-.32l-3.86-2.23c-.16-.1-.42-.1-.56-.02l-3.7,2.13c-.15.08-.13.23.03.32l3.86,2.23c.16.1.42.1.56.02ZM272.83,176.44l3.7-2.14c.15-.08.13-.23-.03-.32l-3.86-2.23c-.16-.1-.42-.1-.56-.02l-3.7,2.13c-.15.08-.13.23.03.32l3.87,2.23c.16.09.42.1.56.02ZM383.01,211.42c.15-.08.13-.23-.03-.32l-3.86-2.23c-.16-.09-.42-.1-.56-.02l-.98.57c-.15.08-.13.23.03.32l3.86,2.23c.16.09.42.1.56.02l.98-.57ZM373.06,204.26c.15-.08.13-.23-.03-.32l-3.86-2.23c-.16-.09-.42-.1-.56-.02l-3.7,2.13c-.15.08-.13.23.03.32l3.86,2.23c.16.1.42.1.56.02l3.7-2.13ZM361.76,197.74c.15-.08.13-.23-.03-.32l-3.86-2.23c-.16-.09-.42-.1-.56-.02l-3.7,2.13c-.15.08-.13.23.03.32l3.86,2.23c.16.09.42.1.56.02l3.7-2.13ZM280.12,150.67c.15-.08.13-.23-.03-.32l-3.86-2.23c-.16-.1-.42-.1-.56-.02l-3.7,2.13c-.15.08-.13.23.03.32l3.86,2.23c.16.09.42.1.56.02l3.7-2.13ZM367.41,201c.15-.08.13-.23-.03-.32l-3.86-2.23c-.16-.09-.42-.1-.56-.02l-3.7,2.13c-.15.08-.13.23.03.32l3.86,2.23c.16.09.42.1.56.02l3.7-2.13ZM291.41,157.19c.15-.08.13-.23-.03-.32l-3.86-2.23c-.16-.09-.42-.1-.56-.02l-3.7,2.13c-.15.08-.13.23.03.32l3.86,2.23c.16.1.42.1.56.02l3.7-2.13ZM285.76,153.93c.15-.08.13-.23-.03-.32l-3.86-2.23c-.16-.09-.42-.1-.56-.02l-3.7,2.13c-.15.08-.13.23.03.32l3.86,2.23c.16.09.42.1.56.02l3.7-2.13ZM394.31,217.94c.15-.08.13-.23-.03-.32l-3.86-2.23c-.16-.09-.42-.1-.56-.02l-.98.57c-.15.08-.13.23.03.32l3.86,2.23c.16.09.42.1.56.02l.98-.57ZM377.36,208.16c.15-.08.13-.23-.03-.32l-3.86-2.23c-.16-.09-.42-.1-.56-.02l-.98.57c-.15.08-.13.23.03.32l3.86,2.23c.16.09.42.1.56.02l.98-.57ZM372.31,211.08c.15-.08.13-.23-.03-.32l-3.86-2.23c-.16-.09-.42-.1-.56-.02l-3.7,2.13c-.15.08-.13.23.03.32l3.86,2.23c.16.09.42.1.56.02l3.7-2.13ZM358.41,225.62l3.7-2.13c.15-.08.13-.23-.03-.32l-3.86-2.23c-.16-.09-.42-.1-.56-.02l-3.7,2.13c-.15.08-.13.23.03.32l3.86,2.23c.16.09.42.1.56.02ZM388.66,214.68c.15-.08.13-.23-.03-.32l-3.86-2.23c-.16-.09-.42-.1-.56-.02l-.98.57c-.15.08-.13.23.03.32l3.86,2.23c.16.1.42.1.56.02l.98-.57ZM297.06,160.45c.15-.08.13-.23-.03-.32l-3.87-2.23c-.16-.09-.42-.1-.56-.02l-3.7,2.13c-.15.08-.13.23.03.32l3.86,2.23c.16.09.42.1.56.02l3.7-2.13Z"/>
    </g>
  </g>
  <g id="Chat-2" data-name="Chat">
    <g id="Shadow-4" data-name="Shadow" class="cls-13">
      <path d="M268.02,23.34c1.09.63,1.98,2.17,1.98,3.43v117.52s-39.31-22.68-39.31-22.68c-1.09-.63-1.98-2.17-1.98-3.43V.66s39.31,22.68,39.31,22.68Z"/>
    </g>
    <g id="Window-2" data-name="Window">
      <path class="cls-8" d="M263.14,26.66c1.09.63,1.98,2.17,1.98,3.43v117.52s-39.31-22.68-39.31-22.68c-1.09-.63-1.98-2.17-1.98-3.43V3.99s39.31,22.68,39.31,22.68Z"/>
      <path class="cls-35" d="M223.84,3.99l2.71-1.81,39.3,22.68c1.09.63,1.98,2.17,1.98,3.43v117.52s-2.72,1.81-2.72,1.81l-39.3-22.68c-1.09-.63-1.98-2.17-1.98-3.43V3.99Z"/>
      <g>
        <path class="cls-8" d="M264.76,30.1c0-1.13-.82-2.56-1.8-3.12l-38.76-22.37v116.9c-.01,1.13.81,2.56,1.79,3.12l38.76,22.37V30.1Z"/>
        <path class="cls-22" d="M224.56,5.23l38.22,22.06c.88.51,1.62,1.79,1.62,2.81v116.27s-38.23-22.05-38.23-22.05c-.88-.51-1.62-1.79-1.62-2.81V5.23M223.84,3.99v117.52c-.01,1.26.87,2.8,1.97,3.43l39.3,22.68V30.1c.01-1.26-.87-2.8-1.97-3.43L223.84,3.99h0Z"/>
      </g>
      <path class="cls-33" d="M263.14,140.63l.02-3.13c0-.83-.55-1.83-1.24-2.22l-28.3-16.34c-.69-.4-1.25-.05-1.26.78v3.15c0,.83.56,1.83,1.25,2.23l28.26,16.32c.69.4,1.26.05,1.26-.78Z"/>
      <g>
        <path class="cls-27" d="M228.77,116.42c-1.44-.83-2.6-.16-2.6,1.5,0,1.66,1.17,3.68,2.6,4.51,1.44.83,2.6.16,2.6-1.5,0-1.66-1.17-3.68-2.6-4.51Z"/>
        <path class="cls-15" d="M227.3,118.43l1.23-1.18s.01,0,.02-.01c.03-.03.07-.05.11-.06.02,0,.04,0,.06-.01.02,0,.04-.01.06-.01.01,0,.02,0,.04,0,0,0,.02,0,.03,0,.01,0,.02,0,.03.01.03,0,.06.02.09.04.01,0,.03.02.04.03.03.03.05.06.07.09,0,0,.01.01.02.02l1.23,2.6c.08.18,0,.39-.17.47-.05.02-.1.03-.15.03-.13,0-.26-.07-.32-.2l-.55-1.17v2.4c0,.2-.16.35-.35.35s-.35-.16-.35-.35v-3.14s-.63.6-.63.6c-.14.13-.36.13-.5,0-.14-.14-.13-.36,0-.5Z"/>
      </g>
      <g>
        <path class="cls-30" d="M223.84,3.98l2.7-1.81,39.3,22.68c.84.49,1.57,1.52,1.85,2.55.04.13.06.25.09.37.02.11.04.23.04.34,0,.05,0,.11,0,.17v4.48s-2.71,1.82-2.71,1.82l-41.28-23.84V3.98Z"/>
        <path class="cls-36" d="M223.84,3.98l39.29,22.69c.64.37,1.22,1.06,1.58,1.81l2.7-1.82c.12.24.21.49.28.73-.29-1.03-1.01-2.06-1.85-2.55L226.54,2.17l-2.7,1.81Z"/>
        <path class="cls-21" d="M265.12,30.1v4.48s2.71-1.82,2.71-1.82v-4.48c0-.06,0-.12,0-.17,0-.11-.02-.23-.04-.34-.02-.13-.05-.25-.09-.37-.07-.25-.16-.5-.28-.74l-2.71,1.82c.26.53.41,1.1.41,1.61Z"/>
      </g>
    </g>
    <g>
      <path class="cls-37" d="M258.98,34.81c-1.33-.77-2.41-.15-2.41,1.39,0,1.53,1.08,3.4,2.41,4.17,1.33.77,2.41.15,2.41-1.39,0-1.53-1.08-3.4-2.41-4.17Z"/>
      <path class="cls-6" d="M258.98,34.81c-1.33-.77-2.41-.15-2.41,1.39,0,1.53,1.08,3.4,2.41,4.17,1.33.77,2.41.15,2.41-1.39,0-1.53-1.08-3.4-2.41-4.17Z"/>
      <path class="cls-33" d="M254.89,35.58v-.36c0-.77-.54-1.7-1.18-2.07l-8.33-4.79c-.64-.37-1.16-.05-1.16.72v.39c0,.77.51,1.69,1.15,2.06l8.3,4.77c.64.37,1.21.05,1.22-.72Z"/>
      <path class="cls-37" d="M230.3,28.3c-1.33-.77-2.41-.15-2.41,1.39,0,1.53,1.08,3.4,2.41,4.17,1.33.77,2.41.15,2.41-1.39,0-1.53-1.08-3.4-2.41-4.17Z"/>
      <path class="cls-37" d="M230.3,73.49c-1.33-.77-2.41-.15-2.41,1.39,0,1.53,1.08,3.4,2.41,4.17,1.33.77,2.41.15,2.41-1.39,0-1.53-1.08-3.4-2.41-4.17Z"/>
      <path class="cls-33" d="M251.52,43.7l-.03-.37c0-.77-.51-1.69-1.15-2.06l-14.78-8.51c-.64-.37-1.16-.05-1.16.72v.39c0,.77.51,1.69,1.15,2.06l14.75,8.5c.64.37,1.21.05,1.22-.72Z"/>
      <path class="cls-33" d="M254.89,60.56v-.37c0-.77-.54-1.69-1.18-2.06l-12.76-7.36c-.64-.37-1.16-.05-1.16.72v.39c0,.77.51,1.69,1.15,2.06l12.73,7.34c.64.37,1.21.05,1.22-.72Z"/>
      <path class="cls-37" d="M258.98,54.9c-1.33-.77-2.41-.15-2.41,1.39,0,1.53,1.08,3.4,2.41,4.17,1.33.77,2.41.15,2.41-1.39,0-1.53-1.08-3.4-2.41-4.17Z"/>
      <path class="cls-11" d="M258.98,54.9c-1.33-.77-2.41-.15-2.41,1.39,0,1.53,1.08,3.4,2.41,4.17,1.33.77,2.41.15,2.41-1.39,0-1.53-1.08-3.4-2.41-4.17Z"/>
      <path class="cls-33" d="M254.89,55.67v-.37c0-.77-.54-1.69-1.18-2.06l-17.46-10.07c-.64-.37-1.16-.05-1.16.72v.39c0,.77.51,1.69,1.15,2.06l17.43,10.05c.64.37,1.21.05,1.22-.72Z"/>
      <path class="cls-33" d="M251.5,93.74v-.37c0-.77-.54-1.69-1.18-2.06l-14.78-8.51c-.64-.37-1.16-.05-1.16.72v.39c0,.77.51,1.69,1.15,2.06l14.75,8.5c.64.37,1.21.05,1.22-.72Z"/>
      <path class="cls-33" d="M256.22,91.57v-.37c0-.77-.54-1.69-1.18-2.06l-19.49-11.22c-.64-.37-1.17-.05-1.17.71v.39c0,.77.52,1.69,1.16,2.06l19.45,11.2c.64.37,1.21.05,1.22-.72Z"/>
      <path class="cls-37" d="M258.98,69.95c-1.33-.77-2.41-.15-2.41,1.39,0,1.53,1.08,3.4,2.41,4.17,1.33.77,2.41.15,2.41-1.39,0-1.53-1.08-3.4-2.41-4.17Z"/>
      <path class="cls-6" d="M258.98,69.95c-1.33-.77-2.41-.15-2.41,1.39,0,1.53,1.08,3.4,2.41,4.17,1.33.77,2.41.15,2.41-1.39,0-1.53-1.08-3.4-2.41-4.17Z"/>
      <path class="cls-33" d="M254.89,70.72v-.34c0-.77-.54-1.72-1.18-2.08l-22.63-13.05c-.64-.37-1.17-.07-1.17.7v.4c0,.77.52,1.69,1.16,2.06l22.6,13.03c.64.37,1.21.05,1.22-.72Z"/>
      <path class="cls-37" d="M258.98,103.79c-1.33-.77-2.41-.15-2.41,1.39,0,1.53,1.08,3.4,2.41,4.17,1.33.77,2.41.15,2.41-1.39,0-1.53-1.08-3.4-2.41-4.17Z"/>
      <path class="cls-6" d="M258.98,103.79c-1.33-.77-2.41-.15-2.41,1.39,0,1.53,1.08,3.4,2.41,4.17,1.33.77,2.41.15,2.41-1.39,0-1.53-1.08-3.4-2.41-4.17Z"/>
      <path class="cls-33" d="M254.89,104.56v-.36c0-.77-.54-1.7-1.18-2.07l-8.33-4.79c-.64-.37-1.16-.05-1.16.72v.39c0,.77.51,1.69,1.15,2.06l8.3,4.77c.64.37,1.21.05,1.22-.72Z"/>
      <path class="cls-37" d="M230.3,97.28c-1.33-.77-2.41-.15-2.41,1.39,0,1.53,1.08,3.4,2.41,4.17,1.33.77,2.41.15,2.41-1.39,0-1.53-1.08-3.4-2.41-4.17Z"/>
      <path class="cls-33" d="M251.52,112.68l-.03-.37c0-.77-.51-1.69-1.15-2.06l-14.78-8.51c-.64-.37-1.16-.05-1.16.72v.39c0,.77.51,1.69,1.15,2.06l14.75,8.5c.64.37,1.21.05,1.22-.72Z"/>
      <path class="cls-37" d="M258.98,123.88c-1.33-.77-2.41-.15-2.41,1.39,0,1.53,1.08,3.4,2.41,4.17,1.33.77,2.41.15,2.41-1.39,0-1.53-1.08-3.4-2.41-4.17Z"/>
      <path class="cls-11" d="M258.98,123.88c-1.33-.77-2.41-.15-2.41,1.39,0,1.53,1.08,3.4,2.41,4.17,1.33.77,2.41.15,2.41-1.39,0-1.53-1.08-3.4-2.41-4.17Z"/>
      <path class="cls-33" d="M254.89,124.65v-.37c0-.77-.54-1.69-1.18-2.06l-17.46-10.07c-.64-.37-1.16-.05-1.16.72v.39c0,.77.51,1.69,1.15,2.06l17.43,10.05c.64.37,1.21.05,1.22-.72Z"/>
      <path class="cls-37" d="M258.97,80c-1.33-.77-2.41-.15-2.41,1.39,0,1.53,1.08,3.4,2.41,4.17,1.33.77,2.41.15,2.41-1.39,0-1.53-1.08-3.4-2.41-4.17Z"/>
      <path class="cls-24" d="M258.97,80c-1.33-.77-2.41-.15-2.41,1.39,0,1.53,1.08,3.4,2.41,4.17,1.33.77,2.41.15,2.41-1.39,0-1.53-1.08-3.4-2.41-4.17Z"/>
      <path class="cls-33" d="M254.89,80.77v-.35c0-.77-.54-1.7-1.18-2.07l-11.7-6.72c-.64-.37-1.17-.07-1.17.7v.4c0,.77.52,1.69,1.16,2.06l11.67,6.71c.64.37,1.21.05,1.22-.72Z"/>
    </g>
  </g>
  <g id="Video_Bar" data-name="Video Bar">
    <g id="Window-3" data-name="Window">
      <path class="cls-18" d="M240.28,138.98c0-.08.02-.15.04-.22,0-.02,0-.03,0-.05,0-.08.03-.15.06-.22.03-.11.08-.22.14-.31.02-.05.05-.09.08-.13.02-.03.04-.06.07-.09.05-.06.1-.11.16-.16,0,0,0,0,.02-.02.06-.05.14-.09.21-.12.44-.21,1.01-.15,1.64.21l122.86,70.69c1.35.78,2.44,2.12,2.44,5.55v5.75c0,1.29-1.39,2.1-2.51,1.45l-122.8-70.7c-1.35-.78-2.44-2.67-2.44-4.23v-7.1c0-.1,0-.21.02-.3Z"/>
      <g>
        <path class="cls-5" d="M367.17,221.32l.09-.04,2.57-1.49c.7-.39,1.17-1.1,1.28-1.89.01-.12.02-.24.02-.36v-6.5c0-.86-.33-1.83-.86-2.65l-.03.02-3.04,1.75c.47.82.78,1.96.82,3.73v5.98c0,.23-.05.43-.11.6-.2.52-.61.79-.73.85Z"/>
        <path class="cls-19" d="M241.07,137.67c.44-.22,1-.16,1.64.21l122.86,70.68c.24.13.46.3.68.48.15.12.28.25.41.39.21.21.39.45.54.71l3.07-1.76c-.16-.25-.33-.48-.52-.7-.07-.07-.13-.14-.19-.21-.07-.07-.13-.13-.21-.19-.07-.07-.13-.13-.21-.18-.14-.12-.29-.22-.44-.3l-122.87-70.69c-.7-.41-1.32-.42-1.77-.14-.45.27-2.47,1.43-2.99,1.7Z"/>
        <path class="cls-10" d="M241.07,137.67c.44-.22,1-.16,1.64.21l122.86,70.68c.24.13.46.3.68.48.15.12.28.25.41.39.21.21.39.45.54.71l3.07-1.76c-.16-.25-.33-.48-.52-.7-.07-.07-.13-.14-.19-.21-.07-.07-.13-.13-.21-.19-.07-.07-.13-.13-.21-.18-.14-.12-.29-.22-.44-.3l-122.87-70.69c-.7-.41-1.32-.42-1.77-.14-.45.27-2.47,1.43-2.99,1.7Z"/>
        <path class="cls-4" d="M367.17,221.32s-.04.02-.04.02l.04-.02Z"/>
      </g>
    </g>
    <g>
      <g>
        <path class="cls-16" d="M304.14,184.37c-2.33-1.35-4.22-4.62-4.22-7.31,0-2.69,1.89-3.78,4.22-2.44,2.33,1.35,4.22,4.62,4.22,7.31,0,2.69-1.89,3.78-4.22,2.44Z"/>
        <path class="cls-7" d="M304.14,184.37c-2.33-1.35-4.22-4.62-4.22-7.31,0-2.69,1.89-3.78,4.22-2.44,2.33,1.35,4.22,4.62,4.22,7.31,0,2.69-1.89,3.78-4.22,2.44Z"/>
        <path class="cls-9" d="M306.53,182.63c-.14-.14-.8-.79-.91-.93-.12-.13-.19-.24-.17-.46.02-.22.02-.79.02-.96,0-.17-.05-.28-.19-.42-.14-.13-.53-.62-1.17-.98-.5-.28-.96-.33-1.09-.34-.14,0-.13.14-.13.28,0,.13,0,.29,0,.44,0,.04,0,.08,0,.11,0,.08-.02.14-.04.23-.02.13-.09.15-.15.16-.06,0-.66.12-.9.16-.24.05-.29-.14-.35-.25-.05-.1-.13-.22-.19-.34-.06-.12-.15-.34-.15-.61,0-.26-.05-.97.35-1.45.09-.11.21-.19.33-.24.38-.16.83-.05.91-.03.1.03,1.56.18,2.85,1.63,1.29,1.46,1.18,1.59,1.34,1.94.16.35.36,1.31.25,1.69-.11.38-.27.57-.33.57-.06,0-.14-.1-.28-.23Z"/>
      </g>
      <path class="cls-27" d="M294.92,177.59c-1.63-.94-2.95-3.23-2.95-5.11,0-1.88,1.32-2.65,2.95-1.7s2.95,3.23,2.95,5.11c0,1.88-1.32,2.65-2.95,1.7Z"/>
      <g class="cls-29">
        <path class="cls-8" d="M294.92,177.59c-1.63-.94-2.95-3.23-2.95-5.11,0-1.88,1.32-2.65,2.95-1.7s2.95,3.23,2.95,5.11c0,1.88-1.32,2.65-2.95,1.7Z"/>
      </g>
      <g>
        <path class="cls-8" d="M294.69,175.6l1.64.94c.09.05.16,0,.16-.12v-2.59c0-.12-.07-.26-.16-.31l-1.64-.94c-.09-.05-.16,0-.16.12v2.59c0,.12.07.26.16.31Z"/>
        <path class="cls-8" d="M293.52,174.62l.58-.13c.07-.02.14-.13.14-.26v-.8c0-.13-.06-.32-.14-.42l-.58-.8c-.07-.1-.14-.08-.14.05v2.17c0,.13.06.22.14.2Z"/>
      </g>
      <g>
        <path class="cls-27" d="M313.35,188.23c-1.63-.94-2.95-3.23-2.95-5.11,0-1.88,1.32-2.65,2.95-1.7,1.63.94,2.95,3.23,2.95,5.11,0,1.88-1.32,2.65-2.95,1.7Z"/>
        <path class="cls-7" d="M313.35,188.23c-1.63-.94-2.95-3.23-2.95-5.11,0-1.88,1.32-2.65,2.95-1.7,1.63.94,2.95,3.23,2.95,5.11,0,1.88-1.32,2.65-2.95,1.7Z"/>
        <path class="cls-8" d="M313.31,185.33c-.24-.14-.44-.48-.44-.76,0-.28.2-.39.44-.25.24.14.44.48.44.76,0,.28-.2.39-.44.25Z"/>
        <path class="cls-8" d="M311.86,184.5c-.24-.14-.44-.48-.44-.76,0-.28.2-.39.44-.25.24.14.44.48.44.76,0,.28-.2.39-.44.25Z"/>
        <path class="cls-8" d="M314.75,186.16c-.24-.14-.44-.48-.44-.76s.2-.39.44-.25c.24.14.44.48.44.76,0,.28-.2.39-.44.25Z"/>
      </g>
    </g>
  </g>
  <g id="Plant-2" data-name="Plant">
    <g>
      <g id="Pot">
        <path class="cls-27" d="M411.62,250.24h22.35s-2.31,9.62-2.31,9.62h0c-.18,1.16-1.03,2.29-2.57,3.18-3.48,2.01-9.11,2.01-12.58,0-1.66-.96-2.51-2.2-2.59-3.45l-2.29-9.35Z"/>
        <path class="cls-11" d="M411.62,250.24h22.35s-2.31,9.62-2.31,9.62h0c-.18,1.16-1.03,2.29-2.57,3.18-3.48,2.01-9.11,2.01-12.58,0-1.66-.96-2.51-2.2-2.59-3.45l-2.29-9.35Z"/>
        <path class="cls-25" d="M411.62,250.24h22.35s-2.31,9.62-2.31,9.62h0c-.18,1.16-1.03,2.29-2.57,3.18-3.48,2.01-9.11,2.01-12.58,0-1.66-.96-2.51-2.2-2.59-3.45l-2.29-9.35Z"/>
        <path class="cls-12" d="M414.34,256.83c-.51-.29-.95-.61-1.34-.94l-1.26-5.14c.57.65,1.32,1.25,2.26,1.8,4.71,2.72,12.27,2.79,17.14.22l-.57-2.29.17-.24h3.21s-2.31,9.62-2.31,9.62h0c-.18,1.16-1.03,2.29-2.57,3.18-2.48,1.43-6.04,1.83-9.15,1.23,5.57.41,9.39-2.02,9.96-4.26.23-.9.63-2.88.63-2.88-4.65,2.36-11.73,2.27-16.18-.29Z"/>
        <path class="cls-37" d="M410.45,247.39c.12.59.36,1.17.75,1.74.6.91,1.54,1.76,2.8,2.49,4.85,2.8,12.72,2.8,17.57,0,1.26-.73,2.2-1.58,2.8-2.49.38-.56.63-1.15.74-1.74h0c.43-2.1-.75-4.3-3.55-5.91-4.85-2.8-12.72-2.8-17.57,0-2.8,1.61-3.98,3.81-3.55,5.91Z"/>
        <path class="cls-26" d="M410.45,247.39c.12.59.36,1.17.75,1.74.6.91,1.54,1.76,2.8,2.49,4.85,2.8,12.72,2.8,17.57,0,1.26-.73,2.2-1.58,2.8-2.49.38-.56.63-1.15.74-1.74h0c.43-2.1-.75-4.3-3.55-5.91-4.85-2.8-12.72-2.8-17.57,0-2.8,1.61-3.98,3.81-3.55,5.91Z"/>
        <path class="cls-27" d="M411.2,249.13c.6.91,1.54,1.76,2.8,2.49,4.85,2.8,12.72,2.8,17.57,0,1.26-.73,2.2-1.58,2.8-2.49.38-.56.63-1.15.74-1.74h0l-.55,3.79c-.25,1.52-1.39,3.01-3.41,4.18-4.62,2.67-12.11,2.67-16.74,0-2-1.15-3.13-2.62-3.4-4.12l-.03-.19-.53-3.65c.12.59.36,1.17.75,1.74Z"/>
        <path class="cls-28" d="M411.2,249.13c.6.91,1.54,1.76,2.8,2.49,4.85,2.8,12.72,2.8,17.57,0,1.26-.73,2.2-1.58,2.8-2.49.38-.56.63-1.15.74-1.74h0l-.55,3.79c-.25,1.52-1.39,3.01-3.41,4.18-4.62,2.67-12.11,2.67-16.74,0-2-1.15-3.13-2.62-3.4-4.12l-.03-.19-.53-3.65c.12.59.36,1.17.75,1.74Z"/>
        <path class="cls-27" d="M415.47,242.32c4.04-2.34,10.6-2.34,14.64,0,2.29,1.32,3.28,3.11,2.98,4.83-.23,1.32-1.23,2.61-2.98,3.62-4.04,2.34-10.59,2.34-14.64,0-1.75-1.01-2.75-2.3-2.98-3.62-.3-1.73.69-3.51,2.98-4.83Z"/>
        <path class="cls-28" d="M415.47,242.32c4.04-2.34,10.6-2.34,14.64,0,2.29,1.32,3.28,3.11,2.98,4.83-.23,1.32-1.23,2.61-2.98,3.62-4.04,2.34-10.59,2.34-14.64,0-1.75-1.01-2.75-2.3-2.98-3.62-.3-1.73.69-3.51,2.98-4.83Z"/>
        <path class="cls-47" d="M432.4,248.75c-.51.74-1.27,1.43-2.3,2.02-4.04,2.34-10.59,2.34-14.64,0-1.03-.6-1.79-1.29-2.29-2.02.03-1.4.97-2.79,2.81-3.86,3.76-2.17,9.85-2.17,13.6,0,1.85,1.07,2.78,2.46,2.82,3.86Z"/>
      </g>
      <g>
        <path class="cls-44" d="M425.91,233.69c.19-5.71,2.34-14.58,4.41-18.17-3.12,3.74-6.25,10.01-6.51,16.89l2.1,1.28Z"/>
        <path class="cls-40" d="M419.71,246.01c-.19-3.97-3.11-5.26-6.4-3.97-2.34.92-5.71,4.39-6.78,9.92,1.04-2.86,8.62-12.48,13.17-5.95Z"/>
        <path class="cls-48" d="M419.54,247.92c-.19-1.48-1.52-3.42-3.84-2.94-2.32.48-7.79,4.75-10.11,11.75.42-4.7,1.95-8.75,5.09-11.38,3.12-2.6,5.42-3.03,7.72-1.67,1.97,1.17,1.14,4.24,1.14,4.24Z"/>
        <path class="cls-40" d="M423.7,249.84c1.89-6.31,2.17-18.05.35-24.39-2.57-8.97-7.9-12.9-11.88-13.85,3.77,1.57,7.75,7.32,8.87,12.94,1.12,5.62.48,25.3.48,25.3h2.19Z"/>
        <path class="cls-44" d="M422.15,243.68c-.24-3.53-2.3-11.36-6.38-14.52-4.08-3.16-8.63-1.04-10.01.62,2.47-1.73,5.44-1.65,7.59.12,2.14,1.77,4.33,7.09,5.42,12.14l3.38,1.64Z"/>
        <path class="cls-48" d="M416.6,229.9c-2.57-2.52-4.57-4.22-7.76-4.05s-7.44,4.61-9.9,14.04c2.55-5.99,5.85-11.26,11.13-11.82,4.16-.44,6.53,1.83,6.53,1.83Z"/>
        <path class="cls-40" d="M445.29,224.3c-4.69-.3-9.59,1.02-14.11,4.86-4.52,3.84-6.31,8.1-6.99,12.47l2.83-.46s2.35-7.42,6.42-11.27c3.62-3.43,6.31-4.79,11.85-5.6Z"/>
        <path class="cls-48" d="M423.49,239.85c-.22-3.18,1.28-9.88,6.15-14.42,4.87-4.54,6.62-5.53,11.64-6.81-2.67,1.24-7.21,4.47-10.43,8.67-3.22,4.21-3.37,9.2-3.37,11.08-.55,1.48-2.53,4.55-3.99,1.48Z"/>
        <path class="cls-48" d="M423.7,241.42c.64-4.06-1.55-11.32-4.1-14.88-3.09-4.3-7.64-7.52-12.69-8.39,5.41,2.07,10.85,8.11,12.45,13.8,1.6,5.69.67,11.58.67,11.58l3.67-2.11Z"/>
        <path class="cls-40" d="M421.98,249.84c.69-3.79-.52-11.69-6.77-16.04-6.24-4.35-10.56-3.2-12.2-2.71,4.83-.33,9.69,2.36,12.65,5.69,2.06,2.31,4,6.1,4.11,12.37l2.2.69Z"/>
        <g>
          <path class="cls-44" d="M421.89,250.15s-1.63-.04-2.29-.81c0-2.45-.66-7.36-4.1-10.25s-6.12-2.34-6.66-1.21c0-1.67,2.1-3.15,4.42-2.66,3.89.82,9.36,5.85,8.63,14.93Z"/>
          <path class="cls-48" d="M415.29,235.98c-2.12-1.15-3.93-2.14-6.29-1.05-.11-.06-1.45-.4-1.96.2-1.97,2.33-1.33,8.12,2.28,13.68-1.66-4.16-1.74-11.85,1.33-13.05,2.41-.94,4.64.22,4.64.22Z"/>
          <path class="cls-44" d="M409,234.93c-.95.44-2.9,3.77-1.64,8.42-1.17-3.51-.75-6.89,1.22-8.53.15.02.3.06.42.11Z"/>
        </g>
        <path class="cls-44" d="M426.05,249.02c.19-1.48,1.52-3.42,3.84-2.94,2.32.48,7.79,4.75,10.11,11.75-.42-4.7-2.13-8.64-4.95-11.61-2.53-2.66-5.84-3.94-8.47-2.54s-.53,5.34-.53,5.34Z"/>
        <g>
          <path class="cls-40" d="M427.02,240.17c2.04-2.04,3.46-3.99,7.21-3.22,3.75.77,6.32,4.85,7.34,10.35-.64-2.13-2.57-6.99-6.4-7.81-3.83-.83-5.7-.54-8.15.68Z"/>
          <path class="cls-48" d="M426.05,249.02c.53-3.6,1.9-8.73,5.73-8.93,3.83-.2,8.03,2.2,9.78,7.21-.9-4.56-4.78-8.91-8.84-8.92-4.06-.01-8.05.88-9.02,11.46l2.35-.82Z"/>
        </g>
        <g>
          <path class="cls-48" d="M429.28,233.76c1.63-1.63,3.98-2.4,5.28-2.62,1.3-.22,3.84-1.22,6.56,1.31,2.72,2.53,5.58,8.44,4.56,12.56-.43-4.38-6.32-16.68-16.4-11.26Z"/>
          <path class="cls-44" d="M423.16,250.2c0-3.34,2.44-13.91,6.29-16.61,4.82-3.37,8.04-.5,8.04-.5,0,0-2.96-1.12-5.74.91-2.49,1.82-4.8,7.14-5.69,15.02,0,0-.84,1.19-2.89,1.18Z"/>
        </g>
        <g>
          <path class="cls-48" d="M425.35,240.26c.23.98-.78,8.25-1.56,9.89-.79.12-1.56.11-2.32-.04-.73-1.27-.02-9.5-1.43-9.66,1.09-.51,4.81-1.88,5.32-.2Z"/>
          <path class="cls-40" d="M425.35,240.26c-1.13-1.17-5.75,1.13-6.61,8.01-1.15-3.26-.64-7.29.51-8.31,1.15-1.02,2.37-.32,2.37-.32,0,0,3.58-1.57,3.73.63Z"/>
          <path class="cls-48" d="M421.61,239.64c-1.41.59-3.03,2.56-3.01,5.9-.11-1.71.22-4.71,2.65-6.04.14.04.26.09.36.15Z"/>
        </g>
      </g>
    </g>
  </g>
  <g id="Character">
    <g id="Character-2" data-name="Character">
      <g id="Bottom">
        <g>
          <g>
            <path d="M234.02,259.17c.32-.04.31.95.21,1.38-.1.43-1.37,1.89-3.68,2.47-2.31.57-6.88.07-8.27.05-1.38-.02-3.74.75-5.11,1-1.37.25-3.86-.16-4.7-.95-.33-.31-.37-.77-.37-1.17,0-.95.08-1.15.18-1.14l21.74-1.64Z"/>
            <path class="cls-17" d="M212.58,257.46c-.04.19-.07.38-.09.57-.13.94-.29,2.49-.13,3.44.31.7,1.09,1.06,1.72,1.24,1.65.47,2.89.34,4.68-.09,1.07-.26,2.24-.53,3.54-.5,1.43.04,4.73.39,6.15.19,1.21-.17,2.4-.35,3.5-.89.93-.46,1.52-1.06,2.07-2.07.02-1.86-.6-2.7-1.6-3.26-1.06-.59-2.68-.69-3.87-.81-1.62-.16-3.17-.25-4.37-.3-.81-.03-1.6-.07-2.34-.45-.35-.18-.62-.37-.79-.72-.21-.43-.22-1.07-.6-1.1,0,0-6.28-.06-6.85.02-.66.08-.68,2.45-.75,2.92-.05.36-.05.75-.13,1.11-.05.23-.1.47-.15.71Z"/>
            <path class="cls-15" d="M225.89,254.86c.09-.06.19-.1.29-.12.54-.11.98.44,1.23.87.15.26.23.55.31.84.1.36.16.74.06,1.11-.03.09-.09.2-.18.18-.08-.02-.11-.13-.12-.21-.07-.52-.22-1.02-.46-1.48-.11-.2-.18-.38-.35-.53-.16-.15-.4-.36-.61-.43-.08-.03-.37-.02-.37-.02.02-.03.1-.12.12-.15.03-.02.05-.04.08-.05Z"/>
            <path class="cls-15" d="M223.63,254.76c.25-.03.52.03.73.19.25.19.4.45.52.73.22.55.34,1.36.05,1.91-.1.18-.24.09-.31-.06-.07-.17-.06-.41-.09-.59-.07-.43-.12-.78-.28-1.18-.07-.16-.18-.31-.28-.44-.07-.09-.21-.25-.31-.31-.05-.03-.1-.05-.15-.06h-.17c0-.09.1-.14.18-.16.04-.01.08-.02.12-.02Z"/>
            <path class="cls-15" d="M221.73,254.2c.18.06.35.16.47.31.12.14.26.37.32.55.12.4.15.77.18,1.19.02.3-.03.61-.17.86-.06.1-.17.21-.27.16-.11-.05-.11-.24-.12-.34-.02-.2-.01-.4-.02-.6-.03-.74-.17-1.19-.54-1.83-.11-.2-.22-.3-.22-.3.01-.05.08-.06.14-.05.08.01.16.03.24.06Z"/>
          </g>
          <path class="cls-23" d="M212.5,246.79s.68,4.93.91,6.33c.13.79.94,1.49,3.28,1.45,1.65-.03,3.56-.55,3.77-1.42l.26-7.47-8.22,1.11Z"/>
        </g>
        <g>
          <path class="cls-23" d="M185.17,242.04c.8-1.36,2.27-5.26,3.25-9.1l7.47,3.45s-4.77,8.81-5.3,9.63c-.88,1.34-5.42-3.97-5.42-3.97Z"/>
          <g>
            <path class="cls-17" d="M182.88,244.7c0-.08.02-.15.04-.23.16-.68.7-1.2,1.25-1.6.55-.41.7-.7,1.1-1.26.18-.25.4-.65.68-.76.18-.07.78-.02.97.02.94.18,1.83.59,2.6,1.18.35.27.76.62,1.38,1.43.28.37.51.81.52,1.32,0,.28-.12.56-.61,1.56-.29.58-.66,1.65-.69,2.31-.05,1.05,0,1.4.06,2.45.03,1.48.21,1.46.21,1.46,0,0,2.38-.6,4.09.32,1.54.82,1.1,2.3,1.1,2.3,0,0-1.8,1.34-3.99,1.84,0,.03-.01.05-.02.08,0,0-.98,1.16-2.33.69-.1-.04-.18-.07-.27-.12-1.49-.76-5.18-2.73-5.13-2.97.04-.23-.02-.52-.03-.74-.03-.58-.07-1.16-.11-1.74-.04-.53,0-1.15-.14-1.66-.12-.45-.19-.89-.25-1.37-.14-1.16-.28-2.33-.41-3.49-.04-.33-.08-.68-.04-1.01Z"/>
            <path d="M182.19,245.11c-.66.3-.4,2.2.11,4.01.51,1.81.76,2.44.62,3.98-.14,1.54-.24,2.22.39,2.76.62.53,5.49,2.62,5.49,2.62,0,0-1.04-2.3-1.32-5.68s-.6-5.54-2.18-7.01c-1.58-1.47-3.1-.67-3.1-.67Z"/>
            <path class="cls-39" d="M195.59,255.19s-2.66,1.63-4.77,1.99-2.26-.49-2.6-3.1c-.34-2.61-.6-6.22-1.66-7.77-1.06-1.55-2.76-2.17-3.41-1.98-.14-.07-.77.47-.96.79,0,0,1.45-.26,2.83,1.03,1.39,1.29,1.76,4.12,1.94,6.7.18,2.58.43,5.58,2.42,5.8,1.99.22,4.65-.69,5.91-1.89.73-.69.3-1.56.3-1.56Z"/>
            <g>
              <path class="cls-15" d="M190.21,251.61s.27.17.32.46c.04.3-.04.99-.66,1.39-.26.17-.49.12-.09-.45.41-.57.43-1.41.43-1.41Z"/>
              <path class="cls-15" d="M190.17,249.79s.18.15.2.39c.02.24-.35,1.23-.81,1.47-.46.24-.23-.31-.03-.57.2-.26.64-1.29.64-1.29Z"/>
              <path class="cls-15" d="M190.3,247.75s.13.24.05.56c-.05.21-.83.78-1.13.77-.3-.01-.42-.18-.02-.39.32-.16.99-.67,1.09-.95Z"/>
            </g>
          </g>
        </g>
        <g>
          <path class="cls-17" d="M193.33,241.33s11.5-20.79,11.88-22.52c.39-1.72,2.18-10.44,2.18-10.44l2.52,14.03c-.27,1.52-.67,3.83-.63,5.58.05,2.33.52,4.98,1.44,9.59,1.45,7.25,2.17,12.39,2.17,12.39.53.36,1.88,1.14,4.15.84,1.78-.24,3.65-1.41,3.65-1.41,0,0,.36-11.28.46-15.78.11-4.5.06-11.39.15-14.35.15-5.35-.02-4.57-.18-13.32-.17-9.08-1.07-22.97-1.07-22.97l-23.28-1.02s-2.69,3.83-2.67,13.62c.01,7.64-.11,20.54-.11,20.54-2.25,3.89-2.58,5.06-3.72,9.52-.92,3.61-2.22,8.01-2.88,11.25,2.08-.1,5.14,2.74,5.94,4.45Z"/>
          <path class="cls-42" d="M193.33,241.33s11.5-20.79,11.88-22.52c.39-1.72,2.18-10.44,2.18-10.44l2.52,14.03c-.27,1.52-.67,3.83-.63,5.58.05,2.33.52,4.98,1.44,9.59,1.45,7.25,2.17,12.39,2.17,12.39.53.36,1.88,1.14,4.15.84,1.78-.24,3.65-1.41,3.65-1.41,0,0,.36-11.28.46-15.78.11-4.5.06-11.39.15-14.35.15-5.35-.02-4.57-.18-13.32-.17-9.08-1.07-22.97-1.07-22.97l-23.28-1.02s-2.69,3.83-2.67,13.62c.01,7.64-.11,20.54-.11,20.54-2.25,3.89-2.58,5.06-3.72,9.52-.92,3.61-2.22,8.01-2.88,11.25,2.08-.1,5.14,2.74,5.94,4.45Z"/>
          <path class="cls-13" d="M207.41,208.44l-1.67-10.06s-3.35-.17-7.44-3.41c0,0,.6,2.98,6.35,4.88l1.61,9.73-.84,8.29s1.98-9.23,2-9.43Z"/>
          <path d="M220.87,246.86c-1.52.87-6.68,1.45-8.46.31l.59,3.78s1.08.73,3.7.55c2.9-.19,4.01-.99,4.01-.99l.16-3.65Z"/>
          <path d="M194.92,238.43l-1.6,2.9s-1.51-2.29-3.48-3.31c-1.8-.93-2.75-.65-2.75-.65l.99-3.57s2.23.09,3.89,1.17c2.64,1.72,2.95,3.46,2.95,3.46Z"/>
        </g>
      </g>
      <g id="Top">
        <g>
          <polygon class="cls-23" points="210.64 147.55 209.95 154.08 201.31 153.11 202.1 146.05 210.64 147.55"/>
          <g>
            <path class="cls-45" d="M215.6,136.56c.55.93,2.26,3.75,2.27,4.24l-1.82.8-.45-5.04Z"/>
            <path class="cls-23" d="M211.68,129.54c2.7.07,4.17,2.19,4.17,7.95,0,.23.28.62.41,1.5.57,3.78-.49,7.15-1.23,7.99-1.71,1.03-3.48,1.26-5.93.71-1.87-.42-6.61-1.65-8.71-4.53-2.47-3.39-3.31-8.12-.95-10.19,3.32-2.91,10.75-3.48,12.24-3.44Z"/>
            <path class="cls-20" d="M214.1,142.96s.07.02.09.04c.02.02.03.04.05.06.04.04.07.08.11.12.09.08.18.15.29.21.19.11.4.16.61.22.02,0,.03.01.03.03,0,.02.01.04,0,.06-.03.04-.11.04-.16.04-.06,0-.12-.01-.17-.03-.13-.03-.25-.07-.36-.13-.11-.05-.22-.13-.31-.21-.05-.04-.09-.08-.13-.13-.02-.02-.04-.04-.06-.07-.04-.05-.04-.08-.04-.14,0-.02.02-.09.05-.08Z"/>
            <path class="cls-45" d="M215.03,146.98c-.41.46-2.91,1.32-4.46,1.21l.09-1.13s2.18.29,4.36-.08Z"/>
          </g>
          <g>
            <path class="cls-21" d="M212.04,133.73s.09.76-.3,1.37c-.39.61-.86.99-1.49,1.2.43.74.68,1.58.73,2.44.02.27,0,.55-.13.78-.24.41-.69.39-.91.03-.27-.43-.46-.89-.82-1.26-.42-.43-.97-.74-1.57-.78-2.25-.13-2.11,2.88-1.15,4.05,1.57,1.92,2.71.6,2.71.6,0,0,.9,3.02-1.2,4.42,0,0-3.43.96-5.86-.17-1.62-2.31-3.52-3.77-4.56-5.7-2.46-4.59-1.7-8.39.41-9.31.19-1.92,1.88-3.17,3.53-3.86,2.25-.93,4.52-.28,6.86-.4,1.2-.06,2.38-.4,3.43-.98.47-.26,1.04-.57,1.49-.29.18.11.3.3.39.49.31.68.28,1.51-.08,2.17.6-.47,1.69-.32,2.34.15.93.67,1.11,1.51.85,2.71-.16.74-1.5,3.13-4.67,2.35Z"/>
            <path class="cls-21" d="M198.06,131.87l-2.2-1.15c.32-.61,1.07-.84,1.68-.52.61.32.84,1.07.52,1.68Z"/>
          </g>
        </g>
        <g>
          <path class="cls-23" d="M199.85,149.77c-3.53.3-5.52.97-7.61,5.4-1.98,4.19-5.52,9.79-6.57,12.84-.51,1.49-1.41,2.81,1.32,5.55,3.73,3.74,8.42,6.39,8.42,6.39l3-5.95-4.28-4.36,2.07-3.98,3.66-15.89Z"/>
          <path class="cls-45" d="M194.13,169.63c-.49.75-1.58,1.78-2.68,2.13,1.23.34,2.63-.95,3.07-1.73l-.39-.4Z"/>
          <g>
            <path class="cls-27" d="M199.61,149.69c-1.56.05-3.69.06-5.56,2.14-1.86,2.08-6.58,12-6.58,12,0,0,.99,1.68,4,2.99,3.01,1.31,4.46.79,4.46.79l4.56-9.6-.89-8.32Z"/>
            <path class="cls-13" d="M199.61,149.69c-1.56.05-3.69.06-5.56,2.14-1.86,2.08-6.58,12-6.58,12,0,0,.99,1.68,4,2.99,3.01,1.31,4.46.79,4.46.79l4.56-9.6-.89-8.32Z"/>
          </g>
        </g>
        <path class="cls-27" d="M196.76,150.46c-2.29,1.19-3.21,5.46-3.15,8.97.04,2.22.64,7.99,1.16,13.08.16,1.6-.18,6.35-.32,8.76s-.29,6.57-.29,6.57c0,0,2.17,3.03,10.45,3.55,10.01.63,16.28-2.79,16.28-2.79,0,0-.28-9.63-.69-16.45-.44-7.41-.11-14.59-1.64-17.2-.49-1.03-.83-2.22-2.54-2.72-1.35-.4-4.48-1.25-5.72-1.47-2.06.46-7.36.35-8.64-.81l.03-.29c-2.27-.1-3.52.06-4.93.8Z"/>
        <g>
          <path class="cls-23" d="M233.55,162.07s11.72-2.97,12.49-3.56c.66-.5.85-1.3,1.17-2.01.36-.82.89-1.56,1.47-2.24.38-.45.84-.84,1.2-1.3.33-.43.46-.97.77-1.41.34-.47.77-.14.99.27.29.54.2,1.32,0,1.88-.1.27-.18.54-.28.8-.09.24-.23.48-.27.74-.02.12-.03.29.04.4.16.24.62.07.82-.02,1.35-.58,2.64-1.49,3.64-2.55.44-.47.78-.99,1.26-1.43.42-.39.94-.79,1.46-1.02.27-.12.86-.34,1.16-.24.6.21-.04,1.17-.19,1.49-.18.4-.28.71-.25,1.16.04.59-.06.84-.37,1.33-.26.42-.67.86-.72,1.36-.02.17,0,.36.01.53.01.49-.3,1.12-.6,1.49-.38.48-.47.79-.52,1.39-.09,1.17-1.29,2.05-2.18,2.63-1.03.67-2.16,1.15-3.31,1.56-.62.22-1.22.49-1.85.69-.56.18-1.14.31-1.68.53-1.3.53-9.36,4.53-13.37,5.75-1.98.6-2.5,1.38-5.34-.02-5.12-2.51-5.63-2.58-8.58-4.29-4.04-2.34-6.24-3.74-6.85-6.32-1.41-5.99,1.97-6.98,1.97-6.98,1.46.34,2.22.66,6.71,3.1,4.79,2.61,11.19,6.28,11.19,6.28Z"/>
          <g>
            <path class="cls-27" d="M215.68,152.14c2.28.21,3.49,1.15,6.06,2.68,2.57,1.53,6.94,4.21,6.94,4.21,0,0,1.7,2.53-.57,6.87-1.43,2.72-2.89,3.11-2.89,3.11,0,0-9.53-4.72-10.95-6.61s-2.97-8.94,1.41-10.26Z"/>
            <path class="cls-13" d="M215.68,152.14c2.28.21,3.49,1.15,6.06,2.68,2.57,1.53,6.94,4.21,6.94,4.21,0,0,1.7,2.53-.57,6.87-1.43,2.72-2.89,3.11-2.89,3.11,0,0-9.53-4.72-10.95-6.61s-2.97-8.94,1.41-10.26Z"/>
          </g>
        </g>
      </g>
    </g>
  </g>
  <g id="Videocall_Window" data-name="Videocall Window">
    <g id="Window-4" data-name="Window">
      <g id="Shadow-5" data-name="Shadow" class="cls-13">
        <path d="M335.78,128.92l-58.81-33.97c-.42-.24-.75-.05-.75.43v52.13c0,.48.34,1.06.75,1.3l58.81,33.97c.42.24.75.05.75-.43v-52.13c0-.48-.34-1.06-.75-1.3Z"/>
      </g>
      <g id="Speech_Bubble" data-name="Speech Bubble">
        <g>
          <g>
            <path class="cls-41" d="M330.93,133c-.03-.07-.06-.14-.1-.2h0c.04.06.08.13.11.2Z"/>
            <path class="cls-31" d="M271.54,98.98c.07-.22.23-.35.43-.35.11,0,.25.04.38.12l57.87,33.41c.23.13.44.37.6.63l3.09-1.78c-.15-.25-.35-.47-.58-.6l-57.87-33.41c-.47-.27-1.23-.27-1.69,0l-1.41.79c-.4.22-.73.72-.82,1.19Z"/>
          </g>
          <g class="cls-3">
            <path class="cls-21" d="M330.22,185.99c.45.26,1.27.27,1.69,0l1.41-.84c.47-.26.85-.91.85-1.45v-51.84c0-.28-.11-.59-.27-.86l-3.09,1.78c.16.26.25.56.25.83v51.88c0,.49-.35.78-.84.49Z"/>
          </g>
        </g>
        <g class="cls-2">
          <path class="cls-30" d="M271.98,98.77c-.28,0-.47.22-.47.6v51.88c0,.54.38,1.19.84,1.46l57.87,33.42c.14.08.26.12.38.12.28,0,.47-.22.47-.6v-51.88c0-.54-.38-1.19-.84-1.46l-57.87-33.42c-.14-.08-.26-.12-.38-.12h0Z"/>
        </g>
        <polygon class="cls-15" points="331.03 183.21 271.51 148.84 271.51 101.76 331.03 136.13 331.03 183.21"/>
        <path class="cls-36" d="M271.98,99.01s.09,0,.19.06l57.87,33.42c.35.2.66.73.66,1.14v51.88s0,.23-.09.23c-.02,0-.09,0-.19-.06l-57.87-33.42c-.35-.2-.66-.73-.66-1.14v-51.88s0-.23.09-.23M271.98,98.64c-.28,0-.47.22-.47.6v51.88c0,.54.38,1.19.84,1.46l57.87,33.42c.14.08.26.12.38.12.28,0,.47-.22.47-.6v-51.88c0-.54-.38-1.19-.84-1.46l-57.87-33.42c-.14-.08-.26-.12-.38-.12h0Z"/>
      </g>
      <g>
        <path class="cls-15" d="M275.05,102.68c-.25-.14-.45-.49-.45-.78,0-.29.2-.4.45-.26.25.14.45.49.45.78,0,.29-.2.4-.45.26Z"/>
        <path class="cls-15" d="M273.57,101.83c-.25-.14-.45-.49-.45-.78,0-.29.2-.4.45-.26.25.14.45.49.45.78,0,.29-.2.4-.45.26Z"/>
        <path class="cls-15" d="M276.52,103.53c-.25-.14-.45-.49-.45-.78s.2-.4.45-.26c.25.14.45.49.45.78,0,.29-.2.4-.45.26Z"/>
      </g>
      <path class="cls-36" d="M327.48,135.92c-.82-.47-1.49-.09-1.49.86,0,.95.66,2.1,1.49,2.57.82.47,1.49.09,1.49-.86,0-.95-.66-2.1-1.49-2.57Z"/>
      <path class="cls-8" d="M327.97,137.5c0-.31-.22-.68-.48-.83-.27-.15-.48-.03-.48.28,0,.31.22.68.48.83.27.15.48.03.48-.28ZM326.54,138.3v.12c.26.39.58.72.94.93.24.14.46.2.66.2.09,0,.18-.01.26-.04v-.14c0-.5-.35-1.12-.79-1.37l-.27-.16c-.44-.25-.79-.05-.79.46Z"/>
      <path class="cls-7" d="M327.97,137.5c0-.31-.22-.68-.48-.83-.27-.15-.48-.03-.48.28,0,.31.22.68.48.83.27.15.48.03.48-.28ZM326.54,138.3v.12c.26.39.58.72.94.93.24.14.46.2.66.2.09,0,.18-.01.26-.04v-.14c0-.5-.35-1.12-.79-1.37l-.27-.16c-.44-.25-.79-.05-.79.46Z"/>
      <path class="cls-36" d="M324.61,137.14l-4.37-2.52c-.28-.16-.5-.55-.5-.87v-.16c0-.32.22-.45.5-.29l4.37,2.52c.28.16.5.55.5.87v.16c0,.32-.22.45-.5.29Z"/>
    </g>
    <g id="Character-3" data-name="Character">
      <g id="Window-5" data-name="Window">
        <path class="cls-33" d="M276.46,148.25l-.07-.04v-30.47c0-2.7.89-4.71,2.51-5.64,1.48-.85,3.4-.68,5.42.48,4.29,2.47,7.78,8.78,7.78,14.06v30.64s-15.63-9.03-15.63-9.03ZM279.04,112.35c-1.5.87-2.36,2.83-2.36,5.39v30.3s15.12,8.73,15.12,8.73v-30.14c0-5.18-3.42-11.38-7.63-13.81h0c-1.12-.65-2.21-.98-3.2-.98-.7,0-1.35.17-1.93.5ZM284.59,151.97l-.07-.04v-27.37s6.73,3.89,6.73,3.89v27.37s-6.66-3.85-6.66-3.85ZM284.8,125.07v26.7s6.15,3.55,6.15,3.55v-26.7s-6.15-3.55-6.15-3.55ZM277.23,147.72v-27.37s6.73,3.89,6.73,3.89v27.37s-6.73-3.89-6.73-3.89ZM277.52,120.86v26.7s6.15,3.55,6.15,3.55v-26.7s-6.15-3.55-6.15-3.55ZM284.51,123.91v-10.21s.23.17.23.17c3.71,2.67,6.5,8.16,6.5,12.78v1.16s-6.73-3.89-6.73-3.89ZM284.8,123.74l6.15,3.55v-.65c0-4.43-2.63-9.69-6.15-12.37v9.47ZM277.23,119.7v-1.96c0-2.66.93-4.53,2.56-5.13.36-.13.76-.2,1.17-.2.9,0,1.89.3,2.92.9l.07.04v10.24s-6.73-3.89-6.73-3.89ZM279.89,112.88c-1.51.55-2.38,2.32-2.38,4.86v1.79s6.15,3.55,6.15,3.55v-9.57c-1.41-.8-2.74-1.02-3.78-.64Z"/>
      </g>
      <g id="Picture">
        <path class="cls-33" d="M328.65,150.2l-7.77-4.48s-.04-.04-.04-.07v-7.47s.02-.05.04-.07c.02-.01.05-.01.08,0l7.77,4.48s.04.04.04.07v7.47s-.02.05-.04.07c-.01,0-.03.01-.04.01s-.03,0-.04-.01ZM321.01,138.31v7.29s7.61,4.39,7.61,4.39v-7.29s-7.61-4.39-7.61-4.39Z"/>
        <path class="cls-33" d="M328.02,149.09l-6.49-3.75s-.04-.04-.04-.07v-6s.02-.05.04-.07c.02-.01.05-.01.08,0l6.49,3.75s.04.04.04.07v6s-.02.05-.04.07c-.01,0-.03.01-.04.01s-.03,0-.04-.01ZM321.64,139.41v5.82s6.33,3.66,6.33,3.66v-5.82s-6.33-3.66-6.33-3.66Z"/>
        <path class="cls-33" d="M327.36,147.96l-5.18-2.97s-.04-.04-.04-.07v-1.11s.01-.05.04-.07l1.1-.67s.08-.01.1.02l.89,1.01s.03.06,0,.09l-.2.33,1.54-1.18s.04-.02.06-.01c.02,0,.04.02.05.04l1.72,2.99s.01.03.01.04v1.49s-.02.05-.04.07c-.01,0-.03.01-.04.01s-.03,0-.04-.01ZM325.66,143.52l-1.8,1.37s-.07.02-.1,0c-.03-.03-.04-.07-.02-.1l.38-.63-.81-.92-1.01.61v1.02s5.02,2.88,5.02,2.88v-1.34s-1.66-2.89-1.66-2.89Z"/>
        <path class="cls-33" d="M323.48,142.5c-.31-.18-.56-.6-.56-.97,0-.19.07-.33.19-.4.12-.07.28-.06.44.04.31.18.56.6.56.97,0,.19-.07.33-.19.4-.05.03-.11.04-.17.04-.08,0-.17-.03-.27-.08ZM323.18,141.25c-.08.05-.12.15-.12.28,0,.31.22.7.49.85.12.07.23.08.31.04.08-.05.12-.15.12-.28,0-.31-.22-.7-.49-.85-.07-.04-.14-.06-.2-.06-.04,0-.07,0-.1.03Z"/>
      </g>
      <g id="Picture-2" data-name="Picture">
        <path class="cls-33" d="M318.87,142.72l-7.77-4.48s-.04-.04-.04-.07v-7.47s.02-.05.04-.07c.02-.01.05-.01.08,0l7.77,4.48s.04.04.04.07v7.47s-.02.05-.04.07c-.01,0-.03.01-.04.01s-.03,0-.04-.01ZM311.22,130.83v7.29s7.61,4.39,7.61,4.39v-7.29s-7.61-4.39-7.61-4.39Z"/>
        <path class="cls-33" d="M318.23,141.61l-6.49-3.75s-.04-.04-.04-.07v-6s.02-.05.04-.07c.02-.01.05-.01.08,0l6.49,3.75s.04.04.04.07v6s-.02.05-.04.07c-.01,0-.03.01-.04.01s-.03,0-.04-.01ZM311.85,131.93v5.82s6.33,3.66,6.33,3.66v-5.82s-6.33-3.66-6.33-3.66Z"/>
        <path class="cls-33" d="M317.57,140.48l-5.18-2.97s-.04-.04-.04-.07v-1.11s.01-.05.04-.07l1.1-.67s.08-.01.1.02l.89,1.01s.03.06,0,.09l-.2.33,1.54-1.18s.04-.02.06-.01c.02,0,.04.02.05.04l1.72,2.99s.01.03.01.04v1.49s-.02.05-.04.07c-.01,0-.03.01-.04.01s-.03,0-.04-.01ZM315.87,136.04l-1.8,1.37s-.07.02-.1,0c-.03-.03-.04-.07-.02-.1l.38-.63-.81-.92-1.01.61v1.02s5.02,2.88,5.02,2.88v-1.34s-1.66-2.89-1.66-2.89Z"/>
        <path class="cls-33" d="M313.69,135.02c-.31-.18-.56-.6-.56-.97,0-.19.07-.33.19-.4.12-.07.28-.06.44.04.31.18.56.6.56.97,0,.19-.07.33-.19.4-.05.03-.11.04-.17.04-.08,0-.17-.03-.27-.08ZM313.39,133.77c-.08.05-.12.15-.12.28,0,.31.22.7.49.85.12.07.23.08.31.04.08-.05.12-.15.12-.28,0-.31-.22-.7-.49-.85-.07-.04-.14-.06-.2-.06-.04,0-.07,0-.1.03Z"/>
      </g>
      <g id="Plants">
        <path class="cls-33" d="M323.95,163.07c1.67-.47,2.27-.99,2.99-2.63.72-1.64,1.82-3.12,1.82-3.12,0,0-5.31,1.19-4.81,5.75Z"/>
        <path class="cls-33" d="M324.24,168.98c1.2-.31,1.63-.65,2.15-1.74.52-1.08,1.31-2.06,1.31-2.06,0,0-3.82.79-3.46,3.79Z"/>
        <path class="cls-33" d="M324.96,169.22c.95.79,1.48.94,2.67.73,1.18-.21,2.43-.14,2.43-.14,0,0-2.87-2.64-5.1-.59Z"/>
        <path class="cls-33" d="M319.86,166.87c-.62-1.07-.67-1.62-.26-2.75s.55-2.37.55-2.37c0,0,2.11,3.28-.29,5.12Z"/>
        <path class="cls-33" d="M319.6,173.87c-1.21-.27-1.65-.6-2.21-1.66-.56-1.06-1.38-2.01-1.38-2.01,0,0,3.84.65,3.59,3.67Z"/>
        <path class="cls-33" d="M319.18,166.53c-1.23-.12-1.71-.4-2.39-1.39s-1.6-1.84-1.6-1.84c0,0,3.89.21,3.99,3.23Z"/>
        <path class="cls-33" d="M323.28,160.73c-.94-.81-1.17-1.31-1.16-2.51.01-1.2-.26-2.42-.26-2.42,0,0,3.08,2.4,1.43,4.93Z"/>
        <path class="cls-33" d="M324.78,174.99c.86-.89,1.38-1.09,2.57-1.01s2.43-.12,2.43-.12c0,0-2.58,2.93-5.01,1.13Z"/>
        <path class="cls-33" d="M321.46,176.87c1.12.97,1.78,1.15,3.29.89,1.51-.26,3.08-.18,3.08-.18,0,0-3.36-3.22-6.37-.71Z"/>
        <path class="cls-33" d="M322.26,175.04c.15-1.23.44-1.7,1.45-2.35s1.87-1.56,1.87-1.56c0,0-.29,3.89-3.32,3.91Z"/>
        <path class="cls-33" d="M320.25,174.39c.12-1.33.35-2.65.65-3.96.29-1.26.68-2.5,1.11-3.73.43-1.22.93-2.42,1.77-3.41.09-.11.18.12.13.19-1.32,2.21-1.96,4.47-2.48,6.97-.24,1.19-.42,3.16-.53,4.37-.06.74-.04,1.65-.03,2.53l-.73-.42c-.04-.85.03-1.72.1-2.54Z"/>
      </g>
      <g id="Character-4" data-name="Character">
        <path class="cls-30" d="M291.8,158.65c-.03.58,0,1.25.11,1.97l18.82,10.87c2.59-2.03,2.4-5,2.4-5,0,0,2.96.64,4.87-2.91,1.92-3.54.35-7.37-4.12-11.58-4.41-4.16-5.27-8.59-4.77-12.96l-17.77,2.08c-.34,5.2-2.72,9.08-3.21,13.34-.25,2.18.74,4.97,3.67,4.18Z"/>
        <path class="cls-14" d="M285,156.63l5.13,2.97,2.46-7.18c-4.2.12-4.98,1.57-7.53,4.15l-.06.06Z"/>
        <path class="cls-37" d="M287.04,157.8l3.09,1.79,18.39,10.62c.13-2.52.37-5.04.49-7.1.41-7.16-.57-8.69-1.6-9.23,0,0-.99-.14-1.85-.26-2.18-.35-9.59-1.27-9.59-1.27l-3.38.05s-2.7,1.92-5.29,5.07c-.09.11-.17.21-.26.32Z"/>
        <g class="cls-38">
          <path class="cls-8" d="M287.04,157.8l3.09,1.79,18.39,10.62c.13-2.52.37-5.04.49-7.1.41-7.16-.57-8.69-1.6-9.23,0,0-.99-.14-1.85-.26-2.18-.35-9.59-1.27-9.59-1.27l-3.38.05s-2.7,1.92-5.29,5.07c-.09.11-.17.21-.26.32Z"/>
        </g>
        <g>
          <path class="cls-30" d="M306.33,131.44c3.05.45,3.42,5.9,2.49,8.94-1.81,5.86-5.55,6.45-5.86,8.96-1.76-1.22-3.52-2.44-5.29-3.65-1.37-.95-2.74-1.89-4.11-2.84-1.81-1.25-4.56-1.71-5.03-4.54-.16-.98.14-2.24,1.14-2.83-.77-.58-1.11-1.87-.92-3.27.37-2.71,3.08-4.53,5.28-5.41,2.26-.9,4.7-.92,6.96-.31,2.37.64,4.79,2.21,5.34,4.96Z"/>
          <path class="cls-14" d="M302.66,151.7l.68-5.46s1.33.94,2.76-.51c1.63-1.65,1.91-3.5,1.16-4.71-.82-1.34-2.88-.9-3.86.68-1.34.3-1.74-1.75-.6-3.8,0,0-2.57-1.76-1.86-4.8-2.38,1.47-7.72,2.05-8.81-.53-.82,1.17-1.92,2.54-2.34,8.97-.38,5.88.59,7.3,2.02,8.05.86.45,1.93.59,3.62.48l-.18,1.52h0c-.08.76-.25.78-.86.8-.49.02-.92.03-.92.03,0,0-2.48,2.82,1.85,3.56,6.46,1.1,10.22-2.33,10.22-2.33,0,0-.37-.06-1.49-.26-1.11-.2-1.39-.65-1.41-1.68Z"/>
          <path class="cls-32" d="M297.46,144.6l-2.41.75c.15.73.81,1.16,1.47.95.67-.21,1.08-.97.94-1.7Z"/>
          <path class="cls-1" d="M297.27,145.19c-.66-.03-1.25.45-1.43,1.11.21.07.45.08.69,0,.48-.15.82-.59.93-1.09-.06-.01-.12-.03-.18-.03Z"/>
          <path class="cls-30" d="M291.07,138.12l1.79-.79c-.16-.54-.69-.79-1.19-.58-.49.22-.77.83-.6,1.36Z"/>
          <path class="cls-30" d="M299.4,138.57l-1.62-1.04c.27-.51.86-.69,1.31-.41.45.29.59.93.32,1.45Z"/>
          <polygon class="cls-32" points="295.3 138.52 294.69 143.91 292.2 142.7 295.3 138.52"/>
          <path class="cls-21" d="M293.04,139.42c0,.47-.35.88-.79.91-.44.04-.8-.31-.8-.78,0-.47.35-.88.79-.91.44-.04.8.31.8.78Z"/>
          <path class="cls-21" d="M298.77,139.71c0,.47-.35.88-.79.91-.44.04-.8-.31-.8-.78,0-.47.35-.88.79-.91.44-.04.8.31.8.78Z"/>
          <path class="cls-32" d="M295.45,150.05c3.03-.26,5.99-1.25,6.76-2.72,0,0-.09,1.62-1.37,2.36-1.78,1.04-5.53,1.5-5.53,1.5l.13-1.15Z"/>
        </g>
        <path class="cls-14" d="M306.09,164.24l2.43,5.97,11.07,6.39c.12-.66.06-1.28-.12-2.07-.65-2.84-3.82-10.29-5.81-15.36-1.71-4.36-3.38-5.11-6.82-5.37-3.3,3.39-.75,10.44-.75,10.44Z"/>
      </g>
    </g>
  </g>
  <g id="Videocall_Window-2" data-name="Videocall Window">
    <g id="Window-6" data-name="Window">
      <g id="Shadow-6" data-name="Shadow" class="cls-13">
        <path d="M335.78,64.32l-58.81-33.97c-.42-.24-.75-.05-.75.43v52.13c0,.48.34,1.06.75,1.3l58.81,33.97c.42.24.75.05.75-.43v-52.13c0-.48-.34-1.06-.75-1.3Z"/>
      </g>
      <g id="Speech_Bubble-2" data-name="Speech Bubble">
        <g>
          <g>
            <path class="cls-41" d="M330.93,68.4c-.03-.07-.06-.14-.1-.2h0c.04.06.08.13.11.2Z"/>
            <path class="cls-31" d="M271.54,34.38c.07-.22.23-.35.43-.35.11,0,.25.04.38.12l57.87,33.41c.23.13.44.37.6.63l3.09-1.78c-.15-.25-.35-.47-.58-.6l-57.87-33.41c-.47-.27-1.23-.27-1.69,0l-1.41.79c-.4.22-.73.72-.82,1.19Z"/>
          </g>
          <g class="cls-3">
            <path class="cls-21" d="M330.22,121.39c.45.26,1.27.27,1.69,0l1.41-.84c.47-.26.85-.91.85-1.45v-51.84c0-.28-.11-.59-.27-.86l-3.09,1.78c.16.26.25.56.25.83v51.88c0,.49-.35.78-.84.49Z"/>
          </g>
        </g>
        <g class="cls-2">
          <path class="cls-30" d="M271.98,34.17c-.28,0-.47.22-.47.6v51.88c0,.54.38,1.19.84,1.46l57.87,33.42c.14.08.26.12.38.12.28,0,.47-.22.47-.6v-51.88c0-.54-.38-1.19-.84-1.46l-57.87-33.42c-.14-.08-.26-.12-.38-.12h0Z"/>
        </g>
        <polygon class="cls-15" points="331.03 118.61 271.51 84.24 271.51 37.15 331.03 71.52 331.03 118.61"/>
        <path class="cls-36" d="M271.98,34.41s.09,0,.19.06l57.87,33.42c.35.2.66.73.66,1.14v51.88s0,.23-.09.23c-.02,0-.09,0-.19-.06l-57.87-33.42c-.35-.2-.66-.73-.66-1.14v-51.88s0-.23.09-.23M271.98,34.03c-.28,0-.47.22-.47.6v51.88c0,.54.38,1.19.84,1.46l57.87,33.42c.14.08.26.12.38.12.28,0,.47-.22.47-.6v-51.88c0-.54-.38-1.19-.84-1.46l-57.87-33.42c-.14-.08-.26-.12-.38-.12h0Z"/>
      </g>
      <g>
        <path class="cls-15" d="M275.05,38.08c-.25-.14-.45-.49-.45-.78,0-.29.2-.4.45-.26.25.14.45.49.45.78,0,.29-.2.4-.45.26Z"/>
        <path class="cls-15" d="M273.57,37.23c-.25-.14-.45-.49-.45-.78,0-.29.2-.4.45-.26.25.14.45.49.45.78,0,.29-.2.4-.45.26Z"/>
        <path class="cls-15" d="M276.52,38.92c-.25-.14-.45-.49-.45-.78,0-.29.2-.4.45-.26.25.14.45.49.45.78,0,.29-.2.4-.45.26Z"/>
      </g>
      <path class="cls-36" d="M327.48,71.32c-.82-.47-1.49-.09-1.49.86s.66,2.1,1.49,2.57c.82.47,1.49.09,1.49-.86s-.66-2.1-1.49-2.57Z"/>
      <path class="cls-8" d="M327.97,72.9c0-.31-.22-.68-.48-.83-.27-.15-.48-.03-.48.28,0,.31.22.68.48.83.27.15.48.03.48-.28ZM326.54,73.7v.12c.26.39.58.72.94.93.24.14.46.2.66.2.09,0,.18-.01.26-.04v-.14c0-.5-.35-1.12-.79-1.37l-.27-.16c-.44-.25-.79-.05-.79.46Z"/>
      <path class="cls-7" d="M327.97,72.9c0-.31-.22-.68-.48-.83-.27-.15-.48-.03-.48.28,0,.31.22.68.48.83.27.15.48.03.48-.28ZM326.54,73.7v.12c.26.39.58.72.94.93.24.14.46.2.66.2.09,0,.18-.01.26-.04v-.14c0-.5-.35-1.12-.79-1.37l-.27-.16c-.44-.25-.79-.05-.79.46Z"/>
      <path class="cls-36" d="M324.53,72.48l-4.37-2.52c-.28-.16-.5-.55-.5-.87v-.16c0-.32.22-.45.5-.29l4.37,2.52c.28.16.5.55.5.87v.16c0,.32-.22.45-.5.29Z"/>
    </g>
    <g id="Character-5" data-name="Character">
      <g id="Picture-3" data-name="Picture">
        <path class="cls-33" d="M328.27,108.99l-14.12-8.15s-.07-.07-.07-.13v-30.58c0-.05.03-.1.07-.13.05-.03.1-.03.14,0l14.12,8.15s.07.07.07.13v30.58c0,.05-.03.1-.07.13-.02.01-.05.02-.07.02s-.05,0-.07-.02ZM314.37,70.39v30.24s13.83,7.98,13.83,7.98v-30.24s-13.83-7.98-13.83-7.98Z"/>
        <path class="cls-33" d="M327.11,106.98l-11.8-6.81s-.07-.07-.07-.13v-27.9c0-.05.03-.1.07-.13.05-.03.1-.03.14,0l11.8,6.81s.07.07.07.13v27.9c0,.05-.03.1-.07.13-.02.01-.05.02-.07.02s-.05,0-.07-.02ZM315.53,72.39v27.57s11.51,6.64,11.51,6.64v-27.57s-11.51-6.64-11.51-6.64Z"/>
      </g>
      <g id="Plants-2" data-name="Plants">
        <path class="cls-33" d="M281.62,74.02c1.67-.47,2.27-.99,2.99-2.63s1.82-3.12,1.82-3.12c0,0-5.31,1.19-4.81,5.75Z"/>
        <path class="cls-33" d="M281.91,79.93c1.2-.31,1.63-.65,2.15-1.74.52-1.08,1.31-2.06,1.31-2.06,0,0-3.82.79-3.46,3.79Z"/>
        <path class="cls-33" d="M282.63,80.17c.95.79,1.48.94,2.67.73,1.18-.21,2.43-.14,2.43-.14,0,0-2.87-2.64-5.1-.59Z"/>
        <path class="cls-33" d="M277.53,77.82c-.62-1.07-.67-1.62-.26-2.75s.55-2.37.55-2.37c0,0,2.11,3.28-.29,5.12Z"/>
        <path class="cls-33" d="M277.26,84.82c-1.21-.27-1.65-.6-2.21-1.66s-1.38-2.01-1.38-2.01c0,0,3.84.65,3.59,3.67Z"/>
        <path class="cls-33" d="M276.85,77.48c-1.23-.12-1.71-.4-2.39-1.39-.68-.99-1.6-1.84-1.6-1.84,0,0,3.89.21,3.99,3.23Z"/>
        <path class="cls-33" d="M280.94,71.68c-.94-.81-1.17-1.31-1.16-2.51.01-1.2-.26-2.42-.26-2.42,0,0,3.08,2.4,1.43,4.93Z"/>
        <path class="cls-33" d="M282.45,85.94c.86-.89,1.38-1.09,2.57-1.01,1.2.08,2.43-.12,2.43-.12,0,0-2.58,2.93-5.01,1.13Z"/>
        <path class="cls-33" d="M279.13,87.82c1.12.97,1.78,1.15,3.29.89,1.51-.26,3.08-.18,3.08-.18,0,0-3.36-3.22-6.37-.71Z"/>
        <path class="cls-33" d="M279.93,85.99c.15-1.23.44-1.7,1.45-2.35s1.87-1.56,1.87-1.56c0,0-.29,3.89-3.32,3.91Z"/>
        <path class="cls-33" d="M277.92,85.34c.12-1.33.35-2.65.65-3.96.29-1.26.68-2.5,1.11-3.73.43-1.22.93-2.42,1.77-3.41.09-.11.18.12.13.19-1.32,2.21-1.96,4.47-2.48,6.97-.24,1.19-.42,3.16-.53,4.37-.06.74-.04,1.65-.03,2.53l-.73-.42c-.04-.85.03-1.72.1-2.54Z"/>
      </g>
      <g id="Picture-4" data-name="Picture">
        <path class="cls-33" d="M291.21,63.13l-11.53-6.65s-.06-.06-.06-.1v-11.09s.02-.08.06-.1c.04-.02.08-.02.12,0l11.53,6.65s.06.06.06.1v11.09s-.02.08-.06.1c-.02.01-.04.02-.06.02s-.04,0-.06-.02ZM279.86,45.48v10.82s11.29,6.52,11.29,6.52v-10.82s-11.29-6.52-11.29-6.52Z"/>
        <path class="cls-33" d="M290.26,61.49l-9.63-5.56s-.06-.06-.06-.1v-8.91s.02-.08.06-.1c.04-.02.08-.02.12,0l9.63,5.56s.06.06.06.1v8.91s-.02.08-.06.1c-.02.01-.04.02-.06.02s-.04,0-.06-.02ZM280.8,47.12v8.63s9.4,5.43,9.4,5.43v-8.63s-9.4-5.43-9.4-5.43Z"/>
        <path class="cls-33" d="M289.29,59.8l-7.68-4.41s-.06-.06-.06-.1v-1.65s.02-.08.06-.1l1.64-.99s.11-.02.15.02l1.33,1.5s.04.09.01.14l-.29.49,2.29-1.75s.06-.03.09-.02c.03,0,.06.03.08.06l2.55,4.43s.02.04.02.06v2.22s-.02.08-.06.1c-.02.01-.04.02-.06.02s-.04,0-.06-.02ZM286.76,53.22l-2.67,2.04s-.11.03-.15,0c-.04-.04-.05-.1-.02-.15l.56-.94-1.2-1.37-1.49.91v1.52s7.45,4.27,7.45,4.27v-1.98s-2.47-4.29-2.47-4.29Z"/>
        <path class="cls-33" d="M283.53,51.7c-.46-.27-.83-.9-.83-1.43,0-.28.1-.48.28-.59.18-.1.41-.08.65.05.46.27.83.9.83,1.43,0,.28-.1.48-.28.59-.08.04-.16.07-.25.07-.12,0-.26-.04-.4-.12ZM283.08,49.85c-.12.07-.18.22-.18.42,0,.47.33,1.03.73,1.27.18.1.34.12.45.05.12-.07.18-.22.18-.42,0-.47-.33-1.03-.73-1.27-.11-.06-.21-.09-.3-.09-.06,0-.11.01-.16.04Z"/>
      </g>
      <g id="Picture-5" data-name="Picture">
        <path class="cls-33" d="M271.94,63.5l4.53,2.62v-10.82s-4.53-2.62-4.53-2.62v-.27s4.71,2.72,4.71,2.72c.04.02.06.06.06.1v11.09s-.02.08-.06.1c-.02.01-.04.02-.06.02s-.04,0-.06-.02l-4.59-2.65v-.27Z"/>
        <path class="cls-33" d="M271.94,62.41l3.59,2.07v-8.63s-3.59-2.07-3.59-2.07v-.27s3.76,2.17,3.76,2.17c.04.02.06.06.06.1v8.91s-.02.08-.06.1c-.02.01-.04.02-.06.02s-.04,0-.06-.02l-3.65-2.11v-.27Z"/>
        <path class="cls-33" d="M271.94,61.29l2.61,1.5v-1.98s-2.47-4.29-2.47-4.29l-.14.11v-.3l.11-.08s.06-.03.09-.02c.03,0,.06.03.08.06l2.55,4.43s.02.04.02.06v2.22s-.02.08-.06.1c-.02.01-.04.02-.06.02s-.04,0-.06-.02l-2.67-1.53v-.27Z"/>
      </g>
      <g id="Character-6" data-name="Character">
        <path class="cls-17" d="M287.08,93.23l8.91,5.15.44-.77-1.62-10.54c-1.82.21-3.46.54-4.84,2-1.01,1.05-1.88,2.36-2.89,4.16Z"/>
        <path class="cls-17" d="M289.71,94.75l6.28,3.63,17.24,9.96c.23-2.86.45-5.61.65-7.81.43-4.69.3-8.69-.89-9.78,0,0-5.09-2.73-8.78-3.36-4.76-.82-7.93-.58-9.4-.31-.56.1-3.44,1.12-5.1,7.69Z"/>
        <g>
          <g>
            <path class="cls-21" d="M294.12,72.39c-.62-.54-1.14-1.16-1.39-2.13-.26-1.05-.33-1.87-.18-2.97.03-.25.19-.81.32-1.01.24-.38.69-.48,1.09-.53.26-.03.51-.06.77-.09-.42-.54-.85-1.09-1.04-1.79-.14-.51-.13-1.08.02-1.61.04-.14.1-.29.19-.39.23-.24.58-.19.87-.09,2.31.76,4.6.63,5.41.61,1.45-.05,2.18-.21,4.18-.36,2-.14,5.47.93,5.81,4.98,2.62.55,2.65,5.18,1.76,7.11-1.64,3.55-3.14,5.89-4.02,8.46-.13-.11-8.66-5.91-10.59-7.53-.73-.61-1.45-1.21-2.18-1.82-.35-.29-.7-.56-1.03-.85Z"/>
            <path class="cls-1" d="M310.68,80c-1.67,1.23-2.61-.01-2.61-.01l-.53,8.72c-3.58,4.52-12.3,3.57-8.2-.98l.05-2.09s-1.33.05-2.42-.17c-.47-.1-1.01-.33-1.37-.6-.86-.63-1.45-1.46-1.75-2.84-.35-1.65-.49-3.84-.34-6.26.15-2.53.6-5.8,1.48-7.48,1.49-1.3,5.68-1.34,9.13-.17,0,.95-.14,1.77.5,2.83.31.52.83.92,1.27,1.17-.02,1.84.01,2.34.28,3.16.15.47.45,1.18,1.34.86.42-.15.79-1.12,1.25-1.76.62-.86,2.44-1.23,3.19.68.75,1.95-.11,4.1-1.25,4.95Z"/>
            <path class="cls-43" d="M299.39,85.62c1.79-.15,5-.8,5.99-1.95.99-1.15,1.87-3.83,1.87-3.83,0,0-.54,3.02-1.32,4.33-.78,1.3-2.35,1.8-3.49,2.14-1.14.34-3.08.48-3.08.48l.03-1.16Z"/>
          </g>
          <g>
            <path class="cls-21" d="M301.4,72.73l1.65.83c.23-.52.04-1.13-.41-1.36-.46-.23-1.01,0-1.24.52Z"/>
            <path class="cls-21" d="M296.49,72.52l-1.7.9c-.2-.51.02-1.13.49-1.38.47-.25,1.01-.03,1.21.48Z"/>
            <path class="cls-20" d="M301.53,79.34l-3.16,1.2c.3.94,1.25,1.43,2.12,1.09.87-.33,1.34-1.36,1.04-2.3Z"/>
            <path class="cls-43" d="M301.4,80.03c-.88-.02-1.64.73-1.72,1.68.27.05.55.03.82-.07.65-.25,1.07-.88,1.12-1.57-.07-.01-.15-.03-.22-.03Z"/>
            <polygon class="cls-43" points="299.42 72.89 298.48 78.86 295.69 77.49 299.42 72.89"/>
            <path class="cls-21" d="M302.3,74.94c-.02.45-.38.82-.8.81-.42,0-.74-.37-.72-.82.02-.45.38-.82.8-.81.42,0,.74.37.72.82Z"/>
            <path class="cls-21" d="M296.69,74.64c-.02.45-.38.82-.8.81-.42,0-.74-.37-.72-.82s.38-.82.8-.81c.42,0,.74.37.72.82Z"/>
          </g>
        </g>
        <path class="cls-17" d="M308.34,105.51l4.89,2.82,5.2,3.01c.1-2.25.2-4.84.21-6.35.01-5.43.25-6.44-.6-8.9-.86-2.46-3.16-4.36-5.05-5.35,0,0-4.08,3.09-4.33,8.04-.13,2.47-.23,4.77-.31,6.74Z"/>
      </g>
    </g>
  </g>
  <g id="Videocall_Window-3" data-name="Videocall Window">
    <g id="Window-7" data-name="Window">
      <g id="Shadow-7" data-name="Shadow" class="cls-13">
        <path d="M400.53,166.57l-58.81-33.97c-.42-.24-.75-.05-.75.43v52.13c0,.48.34,1.06.75,1.3l58.81,33.97c.42.24.75.05.75-.43v-52.13c0-.48-.34-1.06-.75-1.3Z"/>
      </g>
      <g id="Speech_Bubble-3" data-name="Speech Bubble">
        <g>
          <g>
            <path class="cls-41" d="M395.67,170.65c-.03-.07-.06-.14-.1-.2h0c.04.06.08.13.11.2Z"/>
            <path class="cls-31" d="M336.29,136.63c.07-.22.23-.35.43-.35.11,0,.25.04.38.12l57.87,33.41c.23.13.44.37.6.63l3.09-1.78c-.15-.25-.35-.47-.58-.6l-57.87-33.41c-.47-.27-1.23-.27-1.69,0l-1.41.79c-.4.22-.73.72-.82,1.19Z"/>
          </g>
          <g class="cls-3">
            <path class="cls-21" d="M394.97,223.65c.45.26,1.27.27,1.69,0l1.41-.84c.47-.26.85-.91.85-1.45v-51.84c0-.28-.11-.59-.27-.86l-3.09,1.78c.16.26.25.56.25.83v51.88c0,.49-.35.78-.84.49Z"/>
          </g>
        </g>
        <g class="cls-2">
          <path class="cls-30" d="M336.72,136.43c-.28,0-.47.22-.47.6v51.88c0,.54.38,1.19.84,1.46l57.87,33.42c.14.08.26.12.38.12.28,0,.47-.22.47-.6v-51.88c0-.54-.38-1.19-.84-1.46l-57.87-33.42c-.14-.08-.26-.12-.38-.12h0Z"/>
        </g>
        <polygon class="cls-15" points="395.77 220.86 336.26 186.49 336.26 139.41 395.77 173.78 395.77 220.86"/>
        <path class="cls-36" d="M336.72,136.67s.09,0,.19.06l57.87,33.42c.35.2.66.73.66,1.14v51.88s0,.23-.09.23c-.02,0-.09,0-.19-.06l-57.87-33.42c-.35-.2-.66-.73-.66-1.14v-51.88s0-.23.09-.23M336.72,136.29c-.28,0-.47.22-.47.6v51.88c0,.54.38,1.19.84,1.46l57.87,33.42c.14.08.26.12.38.12.28,0,.47-.22.47-.6v-51.88c0-.54-.38-1.19-.84-1.46l-57.87-33.42c-.14-.08-.26-.12-.38-.12h0Z"/>
      </g>
      <g>
        <path class="cls-15" d="M339.79,140.33c-.25-.14-.45-.49-.45-.78s.2-.4.45-.26c.25.14.45.49.45.78,0,.29-.2.4-.45.26Z"/>
        <path class="cls-15" d="M338.32,139.49c-.25-.14-.45-.49-.45-.78,0-.29.2-.4.45-.26.25.14.45.49.45.78,0,.29-.2.4-.45.26Z"/>
        <path class="cls-15" d="M341.27,141.18c-.25-.14-.45-.49-.45-.78,0-.29.2-.4.45-.26.25.14.45.49.45.78,0,.29-.2.4-.45.26Z"/>
      </g>
      <path class="cls-36" d="M392.23,173.57c-.82-.47-1.49-.09-1.49.86,0,.95.66,2.1,1.49,2.57s1.49.09,1.49-.86-.66-2.1-1.49-2.57Z"/>
      <path class="cls-8" d="M392.72,175.15c0-.31-.22-.68-.48-.83-.27-.15-.48-.03-.48.28,0,.31.22.68.48.83.27.15.48.03.48-.28ZM391.29,175.96v.12c.26.39.58.72.94.93.24.14.46.2.66.2.09,0,.18-.01.26-.04v-.14c0-.5-.35-1.12-.79-1.37l-.27-.16c-.44-.25-.79-.05-.79.46Z"/>
      <path class="cls-7" d="M392.72,175.15c0-.31-.22-.68-.48-.83-.27-.15-.48-.03-.48.28,0,.31.22.68.48.83.27.15.48.03.48-.28ZM391.29,175.96v.12c.26.39.58.72.94.93.24.14.46.2.66.2.09,0,.18-.01.26-.04v-.14c0-.5-.35-1.12-.79-1.37l-.27-.16c-.44-.25-.79-.05-.79.46Z"/>
      <path class="cls-36" d="M389.4,174.79l-4.37-2.52c-.28-.16-.5-.55-.5-.87v-.16c0-.32.22-.45.5-.29l4.37,2.52c.28.16.5.55.5.87v.16c0,.32-.22.45-.5.29Z"/>
    </g>
    <g id="Character-7" data-name="Character">
      <g id="Window-8" data-name="Window">
        <path class="cls-33" d="M369.05,185.25l-30.27-17.48s-.07-.07-.07-.13v-24.03c0-.05.03-.1.07-.13.05-.03.1-.03.14,0l14.67,8.47h0l15.6,9.01s.07.07.07.13v24.03c0,.05-.03.1-.07.13-.02.01-.05.02-.07.02s-.05,0-.07-.02ZM338.99,143.87v23.69s29.98,17.31,29.98,17.31v-23.7s-29.98-17.31-29.98-17.31ZM368.11,183.63l-13.73-7.93s-.07-.07-.07-.13v-10.39c0-.05.03-.1.07-.13.05-.03.1-.03.14,0l13.73,7.93s.07.07.07.13v10.38c0,.05-.03.1-.07.13-.02.01-.05.02-.07.02s-.05,0-.07-.02ZM354.59,165.45v10.05s13.44,7.76,13.44,7.76v-10.05s-13.44-7.76-13.44-7.76ZM353.45,175.17l-13.74-7.93s-.07-.07-.07-.13v-10.39c0-.05.03-.1.07-.13.05-.03.1-.03.14,0l13.74,7.94s.07.07.07.13v10.38c0,.05-.03.1-.07.13-.02.01-.05.02-.07.02s-.05,0-.07-.02ZM339.92,156.97v10.05s13.45,7.76,13.45,7.76v-10.05s-13.45-7.77-13.45-7.77ZM339.78,167.11h0,0ZM368.11,172.14l-13.73-7.93s-.07-.07-.07-.13v-10.39c0-.05.03-.1.07-.13.05-.03.1-.03.14,0l13.73,7.93s.07.07.07.13v10.39c0,.05-.03.1-.07.13-.02.01-.05.02-.07.02s-.05,0-.07-.02ZM354.59,153.95v10.05s13.44,7.76,13.44,7.76v-10.05s-13.44-7.76-13.44-7.76ZM353.45,163.68l-13.74-7.94s-.07-.07-.07-.13v-10.39c0-.05.03-.1.07-.13.05-.03.1-.03.14,0l13.74,7.94s.07.07.07.13v10.39c0,.05-.03.1-.07.13-.02.01-.05.02-.07.02s-.05,0-.07-.02ZM339.92,145.48v10.05s13.45,7.77,13.45,7.77v-10.05s-13.45-7.77-13.45-7.77Z"/>
      </g>
      <g id="Plants-3" data-name="Plants">
        <path class="cls-33" d="M385.15,193.8c2.18-.61,2.95-1.29,3.9-3.43.94-2.14,2.37-4.06,2.37-4.06,0,0-6.92,1.55-6.27,7.49Z"/>
        <path class="cls-33" d="M385.53,201.5c1.57-.4,2.12-.85,2.8-2.26.68-1.41,1.71-2.68,1.71-2.68,0,0-4.98,1.02-4.51,4.94Z"/>
        <path class="cls-33" d="M386.46,201.82c1.24,1.04,1.93,1.23,3.47.95,1.54-.27,3.17-.18,3.17-.18,0,0-3.74-3.44-6.64-.77Z"/>
        <path class="cls-33" d="M379.82,198.77c-.81-1.4-.88-2.11-.34-3.58s.72-3.09.72-3.09c0,0,2.75,4.27-.38,6.68Z"/>
        <path class="cls-33" d="M379.47,207.88c-1.58-.35-2.15-.78-2.88-2.16-.73-1.38-1.8-2.62-1.8-2.62,0,0,5.01.85,4.68,4.78Z"/>
        <path class="cls-33" d="M378.93,198.32c-1.61-.16-2.23-.52-3.11-1.82s-2.09-2.39-2.09-2.39c0,0,5.07.27,5.2,4.21Z"/>
        <path class="cls-33" d="M384.27,190.76c-1.23-1.05-1.53-1.7-1.51-3.27.02-1.56-.34-3.16-.34-3.16,0,0,4.01,3.12,1.86,6.42Z"/>
        <path class="cls-33" d="M386.23,209.34c1.12-1.16,1.79-1.42,3.35-1.31s3.17-.15,3.17-.15c0,0-3.36,3.81-6.53,1.47Z"/>
        <path class="cls-33" d="M381.9,211.79c1.46,1.26,2.32,1.49,4.29,1.16s4.02-.23,4.02-.23c0,0-4.38-4.2-8.31-.92Z"/>
        <path class="cls-33" d="M382.94,209.4c.2-1.6.58-2.22,1.89-3.07s2.44-2.03,2.44-2.03c0,0-.38,5.07-4.33,5.1Z"/>
        <path class="cls-33" d="M380.32,208.56c.15-1.74.46-3.46.85-5.15.38-1.65.89-3.26,1.45-4.85.55-1.58,1.22-3.15,2.3-4.45.11-.14.23.15.17.25-1.73,2.88-2.56,5.83-3.22,9.08-.32,1.55-.55,4.11-.69,5.69-.08.97-.05,2.15-.04,3.29l-.95-.55c-.05-1.11.04-2.24.13-3.31Z"/>
      </g>
      <g id="Character-8" data-name="Character">
        <g id="Chest">
          <path class="cls-21" d="M349.37,194.07l8.14,4.7,2.14-11.53c-2.65-.03-4.42.25-5.72,1.04-2.17,1.32-3.05,3.25-4.56,5.79Z"/>
          <g id="Chest-2" data-name="Chest">
            <path class="cls-30" d="M353.38,196.38l25.45,14.69c.46-3.1.91-5.31,1.45-7.92.84-3.99,1.01-9.81-.75-10.67-2.31-1.12-3.62-1.88-4.78-2.36,0,0-3.22-3.03-8.55-2.96-2.1.02-4.19-.02-6.55.07-2.61.11-4.99,3.09-6.23,8.86-.02.09-.03.18-.05.28Z"/>
          </g>
          <g id="Head">
            <g>
              <g>
                <path class="cls-21" d="M374.05,167.2c2.29,2.96,1.54,6.63.51,10.12-1.2,3.96-.65,5.72-2.81,6.71,1.04-12.46-3.52,2.13-12.35-7.57-1.6-1.75-1.46-7.17.68-9.63,3.03-3.47,9.48-5.21,13.97.37Z"/>
                <path class="cls-20" d="M374.93,181.22c-1.32.91-2.43-.5-2.43-.5l-.66,8.26s-.01,1.05-2.29,2.36c-1.51.86-4.63,1.36-6.41,3.24-.75-1.36-1.35-3.87.32-6.01l.13-2.24s-.86.11-1.79-.16c-1.22-.35-2.81-1.6-3.23-3.47-.68-3-.35-7.51.91-13.37,1.84-1.53,7.75-1.84,11.44.68-.29,3.44.55,4.96.5,6.21.23.49.47.78.66.96.57.54,1.09-.89,1.6-1.45.51-.56,2.15-1.34,2.89.48.75,1.85-.51,4.23-1.65,5.01Z"/>
              </g>
              <g>
                <path class="cls-21" d="M366.74,173.05l1.52,1.03c.28-.49.17-1.11-.25-1.39-.42-.28-.99-.12-1.27.37Z"/>
                <path class="cls-21" d="M359.82,173.02l1.85-.57c-.09-.53-.58-.83-1.09-.68-.51.16-.85.71-.76,1.24Z"/>
                <path class="cls-21" d="M367.39,175.39c-.03.45-.39.81-.81.8-.42,0-.73-.38-.7-.83.03-.45.39-.81.81-.8.42,0,.73.38.7.83Z"/>
                <path class="cls-21" d="M361.52,174.97c-.03.45-.39.81-.81.8-.42,0-.73-.38-.7-.83.03-.45.39-.81.81-.8.42,0,.73.38.7.83Z"/>
                <path class="cls-46" d="M364.9,173.05l-1.1,5.01-2.29-.98c.45-1.39,2.31-3.47,3.39-4.02Z"/>
              </g>
            </g>
            <path class="cls-21" d="M371.38,175.64c-.16,3.4-1.63,4.05-2.83,4.4-1.92.57-2.8-1.16-5.02-1.33-1.27-.1-1.61.15-2.81.91-.18.12-.69.37-.91.42-.45.09-1.15.16-1.34-.52-.24-.86-.22-2.65-.02-4.14l.08-.81s-.67,3.57-.42,6.36c.16,1.74.73,3.37,1.59,4.2,1.18,1.14,3.28,1.78,6.56,1.15,3.23-.63,4.56-1.74,5.04-2.95,1.57-3.93,1.22-5.83,1.7-6.57.48-.74-1.62-1.12-1.62-1.12Z"/>
            <path class="cls-20" d="M362.71,179.73c-1.52.15-2.3.77-2.37,1.83-.07,1.06.18,2.36,1.05,2.76.87.39.83-.63.72-1.19-.11-.56.19-.43.69-.42.49.01.7-.06.51.5-.19.56-.46,1.34.56,1.25,1.02-.1,1.81-1.15,2.04-2.49.24-1.34-.9-2.46-3.2-2.24Z"/>
            <path class="cls-46" d="M364.76,180.59h-2.58c.05.71.56,1.28,1.27,1.28.71,0,1.35-.57,1.31-1.28Z"/>
            <path class="cls-43" d="M364.72,180.94c-.14.54-.68.93-1.27.93-.27,0-.51-.08-.71-.22.52-.48,1.22-.75,1.98-.71Z"/>
          </g>
          <g id="Head-2" data-name="Head">
            <g>
              <path class="cls-21" d="M363.14,194.57c.98-.61,3.57-1.78,3.78-1.09.15.49.57,2.25,1.3,2.21.97-.05,3.6-1.04,5.34-3.2,1.12-1.39,1.2-2.36,1.2-2.36,0,0-.86-1.86-1.4-2.71-.53-.85-.67-1.39-1.27-1.44l-.16,1.75s-.59,1.13-1.78,2c-1.75,1.26-5.24,2.64-7.01,4.85Z"/>
              <path class="cls-21" d="M363.14,194.57c-.53-.56-1.42-2.88-1.88-2.79-.96.19-1.61.92-1.61.39s.71-1.66,1.58-3.21c.66-1.18,1.72-2.16,2.34-2.27l-.15,2.39s-.37.74-.5,2.05c-.14,1.41-.15,2.45.22,3.43Z"/>
            </g>
          </g>
          <path class="cls-21" d="M376.55,204.46c.16.79.5,3.13.87,5.8l11.24,6.49c-.1-1.19-.3-2.7-.56-4.85-.83-6.97-1.67-11.42-2.72-13.99-1.05-2.57-3.02-4.13-5.84-5.43-3.1,3.86-3.43,9.78-2.98,11.98Z"/>
        </g>
        <g id="Hand">
          <path class="cls-20" d="M341.59,187.51c.08.92.09,1.49.1,2.12l6.26,3.62c-.06-1.34-.15-2.55-.23-3.28-.29-2.52,1.07-3.24,1.84-4.77.77-1.53.6-2.8,1.14-4.38.53-1.58,1.1-2.34.09-2.4-1.01-.06-1.98,1.83-2.26,2.2-.13.18-.28.7-.47.94-.19.24-.44.21-.75-.7-.64-1.82.46-5.39.37-7.3-.03-.6-.57-1.88-1.09-1.6-.33.18-1.04,2.29-1.04,2.29-.63.18-2.07.91-2.92,2-.91,1.16-1.27,1.75-1.43,3.72-.14,1.62-.18,2.73.03,5.41.04.53.33,1.64.37,2.13Z"/>
          <path class="cls-46" d="M346.39,182.25c-1.17,1.46-1.57,3.9-1.25,5.66-.86-1.49-.96-4.66,1.25-5.66Z"/>
        </g>
      </g>
    </g>
  </g>
  <g id="Videocall_Window-4" data-name="Videocall Window">
    <g id="Window-9" data-name="Window">
      <g id="Shadow-8" data-name="Shadow" class="cls-13">
        <path d="M400.53,101.97l-58.81-33.97c-.42-.24-.75-.05-.75.43v52.13c0,.48.34,1.06.75,1.3l58.81,33.97c.42.24.75.05.75-.43v-52.13c0-.48-.34-1.06-.75-1.3Z"/>
      </g>
      <g id="Speech_Bubble-4" data-name="Speech Bubble">
        <g>
          <g>
            <path class="cls-41" d="M395.67,106.05c-.03-.07-.06-.14-.1-.2h0c.04.06.08.13.11.2Z"/>
            <path class="cls-31" d="M336.29,72.03c.07-.22.23-.35.43-.35.11,0,.25.04.38.12l57.87,33.41c.23.13.44.37.6.63l3.09-1.78c-.15-.25-.35-.47-.58-.6l-57.87-33.41c-.47-.27-1.23-.27-1.69,0l-1.41.79c-.4.22-.73.72-.82,1.19Z"/>
          </g>
          <g class="cls-3">
            <path class="cls-21" d="M394.97,159.04c.45.26,1.27.27,1.69,0l1.41-.84c.47-.26.85-.91.85-1.45v-51.84c0-.28-.11-.59-.27-.86l-3.09,1.78c.16.26.25.56.25.83v51.88c0,.49-.35.78-.84.49Z"/>
          </g>
        </g>
        <g class="cls-2">
          <path class="cls-30" d="M336.72,71.82c-.28,0-.47.22-.47.6v51.88c0,.54.38,1.19.84,1.46l57.87,33.42c.14.08.26.12.38.12.28,0,.47-.22.47-.6v-51.88c0-.54-.38-1.19-.84-1.46l-57.87-33.42c-.14-.08-.26-.12-.38-.12h0Z"/>
        </g>
        <polygon class="cls-15" points="395.77 156.26 336.26 121.89 336.26 74.81 395.77 109.18 395.77 156.26"/>
        <path class="cls-36" d="M336.72,72.06s.09,0,.19.06l57.87,33.42c.35.2.66.73.66,1.14v51.88s0,.23-.09.23c-.02,0-.09,0-.19-.06l-57.87-33.42c-.35-.2-.66-.73-.66-1.14v-51.88s0-.23.09-.23M336.72,71.69c-.28,0-.47.22-.47.6v51.88c0,.54.38,1.19.84,1.46l57.87,33.42c.14.08.26.12.38.12.28,0,.47-.22.47-.6v-51.88c0-.54-.38-1.19-.84-1.46l-57.87-33.42c-.14-.08-.26-.12-.38-.12h0Z"/>
      </g>
      <g>
        <path class="cls-15" d="M339.79,75.73c-.25-.14-.45-.49-.45-.78,0-.29.2-.4.45-.26.25.14.45.49.45.78,0,.29-.2.4-.45.26Z"/>
        <path class="cls-15" d="M338.32,74.88c-.25-.14-.45-.49-.45-.78,0-.29.2-.4.45-.26.25.14.45.49.45.78,0,.29-.2.4-.45.26Z"/>
        <path class="cls-15" d="M341.27,76.58c-.25-.14-.45-.49-.45-.78,0-.29.2-.4.45-.26.25.14.45.49.45.78,0,.29-.2.4-.45.26Z"/>
      </g>
      <path class="cls-36" d="M392.23,108.97c-.82-.47-1.49-.09-1.49.86,0,.95.66,2.1,1.49,2.57s1.49.09,1.49-.86c0-.95-.66-2.1-1.49-2.57Z"/>
      <path class="cls-8" d="M392.72,110.55c0-.31-.22-.68-.48-.83-.27-.15-.48-.03-.48.28,0,.31.22.68.48.83.27.15.48.03.48-.28ZM391.29,111.35v.12c.26.39.58.72.94.93.24.14.46.2.66.2.09,0,.18-.01.26-.04v-.14c0-.5-.35-1.12-.79-1.37l-.27-.16c-.44-.25-.79-.05-.79.46Z"/>
      <path class="cls-7" d="M392.72,110.55c0-.31-.22-.68-.48-.83-.27-.15-.48-.03-.48.28,0,.31.22.68.48.83.27.15.48.03.48-.28ZM391.29,111.35v.12c.26.39.58.72.94.93.24.14.46.2.66.2.09,0,.18-.01.26-.04v-.14c0-.5-.35-1.12-.79-1.37l-.27-.16c-.44-.25-.79-.05-.79.46Z"/>
      <path class="cls-36" d="M389.2,110.07l-4.37-2.52c-.28-.16-.5-.55-.5-.87v-.16c0-.32.22-.45.5-.29l4.37,2.52c.28.16.5.55.5.87v.16c0,.32-.22.45-.5.29Z"/>
    </g>
    <g id="Character-9" data-name="Character">
      <g id="Picture-6" data-name="Picture">
        <path class="cls-33" d="M353.31,97.16l-9.36-5.41s-.05-.05-.05-.08v-9.01s.02-.07.05-.08c.03-.02.07-.02.1,0l9.36,5.41s.05.05.05.08v9.01s-.02.07-.05.08c-.02,0-.03.01-.05.01s-.03,0-.05-.01ZM344.09,82.83v8.79s9.17,5.29,9.17,5.29v-8.79s-9.17-5.29-9.17-5.29Z"/>
        <path class="cls-33" d="M352.54,95.83l-7.83-4.52s-.05-.05-.05-.08v-7.24s.02-.07.05-.08c.03-.02.07-.02.1,0l7.83,4.52s.05.05.05.08v7.24s-.02.07-.05.08c-.02,0-.03.01-.05.01s-.03,0-.05-.01ZM344.86,84.16v7.01s7.63,4.41,7.63,4.41v-7.01s-7.63-4.41-7.63-4.41Z"/>
        <path class="cls-33" d="M351.75,94.46l-6.24-3.58s-.05-.05-.05-.08v-1.34s.02-.06.05-.08l1.33-.81s.09-.02.12.02l1.08,1.22s.03.08.01.11l-.24.4,1.86-1.42s.05-.02.08-.02c.03,0,.05.02.06.05l2.07,3.6s.01.03.01.05v1.8s-.02.07-.05.08c-.01,0-.03.01-.05.01s-.03,0-.05-.01ZM349.7,89.12l-2.17,1.66s-.09.03-.12,0c-.03-.03-.04-.08-.02-.12l.46-.76-.98-1.11-1.21.74v1.23s6.05,3.47,6.05,3.47v-1.61s-2-3.48-2-3.48Z"/>
        <path class="cls-33" d="M347.08,87.88c-.38-.22-.67-.73-.67-1.16,0-.22.08-.39.22-.48.15-.08.33-.07.53.04.38.22.67.73.67,1.16,0,.22-.08.39-.22.48-.06.04-.13.05-.2.05-.1,0-.21-.03-.32-.1ZM346.71,86.38c-.09.05-.15.18-.15.34,0,.38.27.84.59,1.03.14.08.28.1.37.04.09-.05.15-.18.15-.34,0-.38-.27-.84-.59-1.03-.09-.05-.17-.08-.24-.08-.05,0-.09.01-.13.03Z"/>
      </g>
      <g id="Picture-7" data-name="Picture">
        <path class="cls-33" d="M353.31,108.96l-9.36-5.41s-.05-.05-.05-.08v-9.01s.02-.07.05-.08c.03-.02.07-.02.1,0l9.36,5.41s.05.05.05.08v9.01s-.02.07-.05.08c-.02,0-.03.01-.05.01s-.03,0-.05-.01ZM344.09,94.63v8.79s9.17,5.29,9.17,5.29v-8.79s-9.17-5.29-9.17-5.29Z"/>
        <path class="cls-33" d="M352.54,107.63l-7.83-4.52s-.05-.05-.05-.08v-7.24s.02-.07.05-.08c.03-.02.07-.02.1,0l7.83,4.52s.05.05.05.08v7.24s-.02.07-.05.08c-.02,0-.03.01-.05.01s-.03,0-.05-.01ZM344.86,95.96v7.01s7.63,4.41,7.63,4.41v-7.01s-7.63-4.41-7.63-4.41Z"/>
        <path class="cls-33" d="M351.75,106.26l-6.24-3.58s-.05-.05-.05-.08v-1.34s.02-.06.05-.08l1.33-.81s.09-.02.12.02l1.08,1.22s.03.08.01.11l-.24.4,1.86-1.42s.05-.02.08-.02c.03,0,.05.02.06.05l2.07,3.6s.01.03.01.05v1.8s-.02.07-.05.08c-.01,0-.03.01-.05.01s-.03,0-.05-.01ZM349.7,100.92l-2.17,1.66s-.09.03-.12,0c-.03-.03-.04-.08-.02-.12l.46-.76-.98-1.11-1.21.74v1.23s6.05,3.47,6.05,3.47v-1.61s-2-3.48-2-3.48Z"/>
        <path class="cls-33" d="M347.08,99.69c-.38-.22-.67-.73-.67-1.16,0-.22.08-.39.22-.48.15-.08.33-.07.53.04.38.22.67.73.67,1.16,0,.22-.08.39-.22.48-.06.04-.13.05-.2.05-.1,0-.21-.03-.32-.1ZM346.71,98.18c-.09.05-.15.18-.15.34,0,.38.27.84.59,1.03.14.08.28.1.37.04.09-.05.15-.18.15-.34,0-.38-.27-.84-.59-1.03-.09-.05-.17-.08-.24-.08-.05,0-.09.01-.13.03Z"/>
      </g>
      <g id="Plants-4" data-name="Plants">
        <path class="cls-33" d="M388.7,136.12c1.67-.47,2.27-.99,2.99-2.63.72-1.64,1.82-3.12,1.82-3.12,0,0-5.31,1.19-4.81,5.75Z"/>
        <path class="cls-33" d="M388.99,142.03c1.2-.31,1.63-.65,2.15-1.74.52-1.08,1.31-2.06,1.31-2.06,0,0-3.82.79-3.46,3.79Z"/>
        <path class="cls-33" d="M389.71,142.28c.95.79,1.48.94,2.67.73,1.18-.21,2.43-.14,2.43-.14,0,0-2.87-2.64-5.1-.59Z"/>
        <path class="cls-33" d="M384.61,139.93c-.62-1.07-.67-1.62-.26-2.75.41-1.13.55-2.37.55-2.37,0,0,2.11,3.28-.29,5.12Z"/>
        <path class="cls-33" d="M384.35,146.92c-1.21-.27-1.65-.6-2.21-1.66s-1.38-2.01-1.38-2.01c0,0,3.84.65,3.59,3.67Z"/>
        <path class="cls-33" d="M383.93,139.59c-1.23-.12-1.71-.4-2.39-1.39s-1.6-1.84-1.6-1.84c0,0,3.89.21,3.99,3.23Z"/>
        <path class="cls-33" d="M388.03,133.79c-.94-.81-1.17-1.31-1.16-2.51.01-1.2-.26-2.42-.26-2.42,0,0,3.08,2.4,1.43,4.93Z"/>
        <path class="cls-33" d="M389.53,148.05c.86-.89,1.38-1.09,2.57-1.01s2.43-.12,2.43-.12c0,0-2.58,2.93-5.01,1.13Z"/>
        <path class="cls-33" d="M386.21,149.92c1.12.97,1.78,1.15,3.29.89,1.51-.26,3.08-.18,3.08-.18,0,0-3.36-3.22-6.37-.71Z"/>
        <path class="cls-33" d="M387.01,148.09c.15-1.23.44-1.7,1.45-2.35,1.01-.65,1.87-1.56,1.87-1.56,0,0-.29,3.89-3.32,3.91Z"/>
        <path class="cls-33" d="M385,147.44c.12-1.33.35-2.65.65-3.96.29-1.26.68-2.5,1.11-3.73.43-1.22.93-2.42,1.77-3.41.09-.11.18.12.13.19-1.32,2.21-1.96,4.47-2.48,6.97-.24,1.19-.42,3.16-.53,4.37-.06.74-.04,1.65-.03,2.53l-.73-.42c-.04-.85.03-1.72.1-2.54Z"/>
      </g>
      <g id="Top-2" data-name="Top">
        <g id="Arm">
          <path class="cls-45" d="M351.96,130.97l6.92,4,3.36-9.83c-2.94-.09-4.51.02-6.56,2-.78.76-2.78,2.9-3.73,3.83Z"/>
        </g>
        <g id="Chest-3" data-name="Chest">
          <path class="cls-22" d="M355.23,132.85l22.23,12.84c.32-1.53.65-2.84.65-2.84,0,0-2.5-.75-2.92-5.2-.55-5.75,1.93-8.48,1.93-8.48,0,0-1.79-1.04-4.11-1.95-2.32-.9-3.63-1.36-8-2.01l-2.75-.09s-3.01,2.24-5.29,4.77c-.41.46-1.61,2.01-1.72,2.95Z"/>
        </g>
        <g id="Head-3" data-name="Head">
          <path id="Hair" class="cls-30" d="M358.59,123.46c-.61-4.57,4.72-4.15,6.27-7.07l-4.04-3.14c-2.49-1.7-1.99-5.42-1.16-7.32,1.86-4.24,6.35-5.59,9.05-5.58,5.12.02,7.46,1.6,7.71,4.48,1.89-.05,4.54,2.18,4.26,8.34-.06,1.23-.2,2.73.36,3.8.49.94,1.24,1.85,1.55,2.91.52,1.76-.13,4.29-2.17,4.55.17-.46.44-1.07.09-1.51-.24,2.18-3.8,3.4-5.38,2.81.43-.28.77-.51.94-1.06-2.69,1.38-4.9.73-7.5-.39-.47-.2-.78-.3-2.33.1-.94.24-2.06.35-3.78-.69-1.08-.65-2.77-1.62-3.88-.22Z"/>
          <g>
            <path class="cls-23" d="M374.45,119.04c.91.21,1.81-.27,2.41-.92,1.33-1.44,1.54-2.93,1.02-3.94-.42-.83-1.56-1.38-2.41-.84-.91.57-.97,1.06-1.34,1.72-.38.68-1.65.58-1.79-2.13-.13-2.52-.34-4.84-1.41-6-1.6-1.73-3.62-1.03-4.37-.04-.62-1.19-1.82-1.67-3.03-1.02-1.18.64-1.93,2.02-2.63,6.78-.71,4.86.02,8.33,1,9.17.75.64,1.73.79,3.42.91l-.14,3.22s-2.68,2.11-2.94,6.28c2.95-.64,8.33-2.52,10.84-4.79l.43-9.19s.06.59.92.79Z"/>
            <g>
              <g>
                <path class="cls-21" d="M367.78,113.23c.1.44.5.7.9.58.4-.12.65-.58.55-1.03-.1-.44-.5-.7-.9-.58-.4.12-.65.58-.55,1.02Z"/>
                <path class="cls-21" d="M368.6,112.18c.47.02.7.71,1.17.45-.1.36-.61.57-.93.38-.2-.12-.23-.83-.23-.83Z"/>
              </g>
              <path class="cls-21" d="M362.12,110.82l1.64-.84c-.18-.49-.69-.7-1.14-.47-.45.23-.68.82-.5,1.31Z"/>
              <g>
                <path class="cls-21" d="M363.84,112.89c-.17.43-.62.65-.99.49-.38-.16-.54-.64-.37-1.07.17-.43.62-.65.99-.49.38.16.54.64.37,1.07Z"/>
                <path class="cls-21" d="M363.21,111.77c-.47-.02-.82.63-1.23.33.03.37.51.62.86.47.22-.1.37-.8.37-.8Z"/>
              </g>
              <path class="cls-21" d="M368.57,110.36l1.55,1.12c.33-.47.25-1.1-.18-1.41-.43-.31-1.04-.18-1.37.28Z"/>
              <g>
                <path class="cls-20" d="M368.09,117.27l-2.53.7c.12.76.86,1.21,1.65.96.69-.22,1-.9.88-1.66Z"/>
                <path class="cls-45" d="M366.5,118.96c.15-.73.78-1.27,1.48-1.21.04,0,.08.02.12.02-.06.54-.36.98-.89,1.15-.25.08-.49.08-.71.04Z"/>
              </g>
              <polygon class="cls-45" points="366.38 111.47 365.58 116.24 363.23 115.19 366.38 111.47"/>
              <path class="cls-45" d="M365.32,122.73c1.58-.08,3.24-.22,4.88-.86.58-.23,1.42-1.28,2.14-2.46,0,0-.64,2.37-1.92,3.13-1.94,1.16-5.15,1.28-5.15,1.28l.05-1.09Z"/>
            </g>
          </g>
          <g>
            <path class="cls-37" d="M372.87,119.21c-.12.91.31,1.76,1.01,2.16.23.14.48.22.76.25,1.13.11,2.17-.79,2.33-2.02.06-.48-.02-.96-.23-1.36-.06.07-.13.13-.19.18-.13.11-.26.19-.38.26.13.26.18.55.14.86-.11.82-.81,1.44-1.57,1.36-.31-.03-.57-.17-.78-.38-.31-.3-.48-.76-.41-1.25.11-.82.81-1.44,1.57-1.36.19.02.36-.13.38-.33.03-.2-.1-.37-.28-.39-1.13-.11-2.17.79-2.33,2.02Z"/>
            <path class="cls-13" d="M372.87,119.21c-.12.91.31,1.76,1.01,2.16.23.14.48.22.76.25,1.13.11,2.17-.79,2.33-2.02.06-.48-.02-.96-.23-1.36-.06.07-.13.13-.19.18-.13.11-.26.19-.38.26.13.26.18.55.14.86-.11.82-.81,1.44-1.57,1.36-.31-.03-.57-.17-.78-.38-.31-.3-.48-.76-.41-1.25.11-.82.81-1.44,1.57-1.36.19.02.36-.13.38-.33.03-.2-.1-.37-.28-.39-1.13-.11-2.17.79-2.33,2.02Z"/>
          </g>
        </g>
        <g id="Arm-2" data-name="Arm">
          <path class="cls-23" d="M373.76,143.55l8.03,4.64c-.02-1.59.02-4.59.12-7.16.32-8.37-.94-9.46-4.79-11.85-4,3.7-3.45,10.69-3.45,10.69-.03.74.03,2.27.09,3.69Z"/>
        </g>
        <g id="Hand-2" data-name="Hand">
          <g>
            <path class="cls-23" d="M341.35,113.31c.12.47.66,2.01.9,3.48.15.91.16,2.1.22,2.74.14,1.34.31,2.28,1.11,3.44.59.86.37,2.12.3,3.32l5.31,3.07c-.04-1.24-.15-2.31-.16-3.28-.02-1.86-.16-3.05.91-4.74.31-.48.9-1.27,1.3-2,.77-1.39,1.22-2.43,1.79-3.24.41-.57-.04-1.21-1.18-.74-.69.28-1.21,1.09-1.79,1.8-.62.75-.84.36-.91-.46-.08-.82-.35-4.85-.52-6.12-.1-.71-.16-1.23-.43-1.37-.25-.13-1.12-.05-1.08,1.63.04,1.81.37,4.47.24,4.47s-.29-1.74-.61-3.55c-.29-1.67-.38-2.41-.58-2.91-.18-.44-1.05-.81-1.22.57-.08.65,0,1.11.31,3.57.22,1.71.19,2.27.19,2.27-.15.08-.4-1.24-.97-2.81-.52-1.42-.78-2.17-1.11-2.64-.17-.24-.75.06-.83.74-.04.34.14.98.36,1.77.3,1.07.32,1.24.52,2.06.15.56.32,1.29.23,1.33-.09.04-.6-1.92-1.51-3.31-.49-.73-.99.14-.8.88Z"/>
            <path class="cls-45" d="M348.67,118.21c-1.18.44-2.75,2.36-3.03,3.97-.36-1.97,1.23-3.93,3.03-3.97Z"/>
          </g>
        </g>
      </g>
    </g>
  </g>
</svg>